<?xml version="1.0" encoding="utf-8"?>
<!-- Generator: Adobe Illustrator 13.0.0, SVG Export Plug-In . SVG Version: 6.00 Build 14948)  -->
<!DOCTYPE svg PUBLIC "-//W3C//DTD SVG 1.1//EN" "http://www.w3.org/Graphics/SVG/1.1/DTD/svg11.dtd">
<svg version="1.1" id="Layer_1" xmlns="http://www.w3.org/2000/svg" xmlns:xlink="http://www.w3.org/1999/xlink" x="0px" y="0px"
	 width="1221px" height="800px" viewBox="0 0 1221 800" enable-background="new 0 0 1221 800" xml:space="preserve">
<g>
	<path fill="#EBEDF0" d="M258.41,292.857l-35.54,27.745c0,0,3.671-20.202,10.914-27.745
		C244.711,281.481,258.41,292.857,258.41,292.857z"/>
	<path opacity="0.5" d="M1000.93,426.943c-40.74-10.995-107.406-10.995-148.146,0L110.157,607.748
		C1.218,628.167,328.186,739.346,451.992,713.223c23.22-4.898,51.673-11.178,107.387-25.607
		c110.758-28.688,409.099-107.172,477.32-129.806c93.324-30.96,138.087-44.3,151.153-53.203
		c13.066-8.902,18.005-22.351-22.733-33.347L1000.93,426.943z"/>
	<g>
		
			<ellipse transform="matrix(-0.9659 -0.2588 0.2588 -0.9659 1799.8292 1127.4718)" fill="#001446" cx="974.131" cy="445.261" rx="67.212" ry="91.821"/>
		
			<rect x="973.199" y="360.53" transform="matrix(-0.9659 -0.2588 0.2588 -0.9659 1850.012 1148.262)" fill="#001446" width="54.786" height="183.642"/>
	</g>
	<g>
		
			<ellipse transform="matrix(-0.9659 -0.2588 0.2588 -0.9659 666.7093 1277.1542)" fill="#001446" cx="417.424" cy="594.69" rx="67.212" ry="91.823"/>
		
			<rect x="416.493" y="509.96" transform="matrix(-0.9659 -0.2588 0.2588 -0.9659 716.9159 1297.9343)" fill="#001446" width="54.785" height="183.643"/>
	</g>
	<polygon fill="#001446" points="1098.98,456.658 1005.829,427.229 602.282,550.213 541.378,627.141 409.204,605.66 
		422.229,493.464 1037.357,323.877 1130.39,385.638 	"/>
	<g>
		<defs>
			<path id="SVGID_1_" d="M1153.215,283.324l-12.82-66.914c0,0-8.899-3.694-24.654-8.87
				c-89.647-31.291-402.517-131.918-582.019-79.971c-159.946,46.289-318.047,200.919-318.047,200.919s-93.609,48.325-139.937,85.537
				C26.106,453.892,13.271,551.658,37.99,587.667c34.537,50.308,245.75,81.212,268.034,83.899c36.662,4.421,60.266,4.421,82.865,0
				l-0.223-14.799c-1.451-22.825-0.49-44.617,4.411-69.226c11.295-56.701,58.767-94.687,97.963-88.257
				c37.34,6.126,62.716,47.139,50.337,127.855l56.424-26.461c93.083-31.182,193.985-58.747,304.874-81.69l41.291-4.898
				c0-25.185,1.761-47.368,8.646-75.124c13.891-55.991,60.747-90.391,98.852-80.18c35.921,9.625,53.663,49.842,47.516,97.871
				c12.398-11.396,23.924-19.982,43.758-43.215c7.172-8.398,19.414-54.656,19.382-97.965
				C1162.109,301.998,1153.215,283.324,1153.215,283.324z"/>
		</defs>
		<use xlink:href="#SVGID_1_"  overflow="visible" fill="#EBEDF0"/>
		<clipPath id="SVGID_2_">
			<use xlink:href="#SVGID_1_"  overflow="visible"/>
		</clipPath>
		<path clip-path="url(#SVGID_2_)" fill="#001446" d="M770.066,197.76c135.012-45.63,226.324-21.345,298.003-3.798l3.226-1.314
			c-122.832-39.582-380.964-110.4-537.573-65.079c-40.238,11.645-80.358,30.15-117.875,51.323c-2.033,1.31-4.066,2.626-6.104,3.966
			c-34.225,19.936-65.134,40.465-93.56,61.441c-24.004,17.865-44.808,34.831-61.168,48.797
			c-13.222,11.359-25.932,22.809-38.245,34.332c-0.717,0.688-1.093,1.057-1.095,1.058c25.595,42.403,119.938,76.001,299.162,80.142
			C514.838,408.629,612.322,251.074,770.066,197.76z"/>
		<path clip-path="url(#SVGID_2_)" fill="#263762" d="M805.616,187.048c-9.64,2.766-17.326,4.875-29.495,8.749
			c-77.4-28.202-160.277-50.203-248.191-66.502l31.64-7.999C640.839,134.424,722.417,157.271,805.616,187.048z"/>
		<path clip-path="url(#SVGID_2_)" fill="#263762" d="M450.303,160.642l-25.789,13.437c48.236,27.411,142.744,49.188,254.646,68.232
			c6.484-4.38,14.232-8.917,23.194-14.132C598.919,208.148,510.332,186.22,450.303,160.642z"/>
		<path clip-path="url(#SVGID_2_)" fill="#263762" d="M230.052,329.533c33.278,38.931,132.888,60.192,276.668,69.685
			c0,0,15.68-39.577-96.977-65.329C289.629,306.431,230.052,329.533,230.052,329.533z"/>
		<polygon clip-path="url(#SVGID_2_)" fill="#263762" points="455.91,224.868 518.625,241.671 542.433,219.922 479.718,203.119 		
			"/>
		<path opacity="0.2" clip-path="url(#SVGID_2_)" fill="#FFFFFF" d="M30.258,543.811c-4.354-131.527,152.6-165.781,255.141-167.827
			c69.379-74.044,242.531-287.294,488.733-263.049l126.302-16.841L759.495,80.301l-290.55,40.995L-18.521,464.547L30.258,543.811z"
			/>
		<path clip-path="url(#SVGID_2_)" fill="#C5C9D2" d="M1140.395,216.41c0,0-95.957,56.846-380.441,152.255
			c-87.012,29.182-250.213,66.913-328.467,105.163c-78.254,38.251-141.359,124.046-180.705,149.43
			c-39.346,25.385-176.993-18.528-201.314-40.184c-30.525-27.18-37.16-75.334-37.16-75.334l-1.82,109.277l326.445,110.273
			l882.107-234.805L1140.395,216.41z"/>
	</g>
	<path fill="#001446" d="M541.378,417.33c158.873-47.809,318.273-93.616,461.48-152.911c12.897-5.34,34.175-12.085,38.405-22.109
		c3.174-7.521,7.027-21.144,10.201-33.176c0,0-123.738-48.492-259.27-3.366C611.194,266.035,541.378,417.33,541.378,417.33z"/>
	<g>
		
			<ellipse transform="matrix(-0.9659 -0.2588 0.2588 -0.9659 1897.541 1167.9513)" fill="#263762" cx="1025.653" cy="459.067" rx="67.213" ry="91.821"/>
		
			<ellipse transform="matrix(-0.9659 -0.2588 0.2588 -0.9659 1897.5488 1167.9399)" fill="#E6E8ED" cx="1025.653" cy="459.066" rx="50.179" ry="68.553"/>
		<path fill="#263762" d="M1054.77,456.084l12.262,19.355c3.362,5.307-1.36,14.582-7.188,14.121l-21.259-1.682
			c-2.535-0.199-5.253,1.617-6.883,4.602l-13.683,25.037c-3.751,6.864-11.391,5.852-11.631-1.541l-0.878-26.967
			c-0.104-3.215-1.783-5.613-4.254-6.076l-20.718-3.883c-5.679-1.064-5.679-10.966,0-15.075l20.718-14.983
			c2.471-1.789,4.15-5.086,4.254-8.359l0.878-27.436c0.24-7.521,7.88-12.629,11.631-7.773l13.683,17.704
			c1.63,2.11,4.348,2.471,6.883,0.912l21.259-13.073c5.828-3.584,10.551,3.161,7.188,10.268l-12.262,25.928
			C1053.307,450.254,1053.307,453.775,1054.77,456.084z"/>
		
			<ellipse transform="matrix(-0.9659 -0.2588 0.2588 -0.9659 1897.5723 1167.9114)" fill="#E6E8ED" cx="1025.653" cy="459.066" rx="10.976" ry="14.995"/>
	</g>
	<g>
		
			<ellipse transform="matrix(-0.9659 -0.2588 0.2588 -0.9659 764.4211 1317.6317)" fill="#263762" cx="468.946" cy="608.497" rx="67.213" ry="91.821"/>
		
			<ellipse transform="matrix(-0.9659 -0.2588 0.2588 -0.9659 764.4153 1317.634)" fill="#E6E8ED" cx="468.946" cy="608.497" rx="50.179" ry="68.552"/>
		<path fill="#263762" d="M498.063,605.514l12.262,19.356c3.362,5.306-1.36,14.581-7.188,14.12l-21.259-1.68
			c-2.535-0.201-5.252,1.615-6.884,4.602l-13.682,25.037c-3.751,6.863-11.39,5.85-11.631-1.543l-0.878-26.966
			c-0.104-3.216-1.783-5.614-4.254-6.077l-20.718-3.883c-5.679-1.064-5.679-10.966,0-15.073l20.718-14.985
			c2.471-1.789,4.15-5.086,4.254-8.357l0.878-27.436c0.241-7.522,7.88-12.629,11.631-7.775l13.682,17.705
			c1.632,2.111,4.349,2.472,6.884,0.912l21.259-13.074c5.83-3.584,10.551,3.161,7.188,10.27l-12.262,25.926
			C496.6,599.686,496.6,603.205,498.063,605.514z"/>
		
			<ellipse transform="matrix(-0.9659 -0.2589 0.2589 -0.9659 764.3911 1317.6442)" fill="#E6E8ED" cx="468.946" cy="608.497" rx="10.976" ry="14.994"/>
	</g>
	<path fill="#6A6774" d="M226.244,643.476"/>
	<polygon fill="#263762" points="780.523,216.922 793.778,332.758 822.39,323.386 806.509,208.417 	"/>
	<polygon fill="#263762" points="978.8,267.021 998.262,259.102 977.455,196.771 959.242,194.516 	"/>
	<g>
		<path fill="none" stroke="#001446" stroke-width="1.4229" stroke-miterlimit="10" d="M793.947,205.495
			c5.355,41.662,14.361,129.873,14.361,129.873s12.853,16.121,10.297,40.332c-4.141,39.229-9.441,109.543-5.836,136.38"/>
		<path fill="none" stroke="#001446" stroke-width="1.4229" stroke-miterlimit="10" d="M967.957,190.762l22.349,78.803
			c11.169,17.286,10.288,40.651,2.729,57.355L925.32,459.438c-7.176,15.857-19.637,27.641-33.027,31.227l-317.051,85.375
			c-11.717-66.535-15.184-139.824-33.369-159.166"/>
		<path fill="none" stroke="#001446" stroke-width="1.4229" stroke-miterlimit="10" d="M514.232,408.437
			c0,0-1.343,7.838-13.181,14.298c-13.144,7.174-127.669,55.11-156.346,68.523c-36.004,16.84-84.032,27.508-115.85,23.808
			c-49.94-5.806-122.818-26.131-140.238-34.841c-19.024-9.512-38.982-31.158-29.71-40.939"/>
		<path fill="none" stroke="#001446" stroke-width="1.4229" stroke-miterlimit="10" d="M1153.215,283.324
			c0,0-48.838,23.014-54.32,25.412c-5.48,2.398-8.574,8.661-10.896,17.197c-2.323,8.536-10.743,47.652-10.743,47.652"/>
		<path fill="none" stroke="#001446" stroke-width="1.4229" stroke-miterlimit="10" d="M370.256,479.87
			c0,0,25.559,9.458,32.254,14.437c8.22,6.113,20.804,18.336,22.004,32.176"/>
	</g>
	<path fill="#CBCFD7" d="M218.451,598.688c6.555-0.705-8.979-23.938-11.199-28.105c-18.856-35.409-58.827-40.559-98.979-51.408
		c-36.001-9.73-42.43,3.986-47.159,10.894c-1.823,2.663-8.738,16.221-4.443,19.544c9.984,7.724,32.979,17.727,66.26,27.324
		C158.946,587.322,210.847,599.507,218.451,598.688z"/>
	
		<ellipse transform="matrix(0.9028 0.4302 -0.4302 0.9028 220.1757 -16.4513)" fill="#667290" cx="146.474" cy="478.743" rx="8.419" ry="10.317"/>
	<path fill="#667290" d="M1145.269,242.31c0,0-13.749,10.057-20.261,16.083c-8.77,8.116-10.502,24.931-15.939,45.808l44.514-20.081
		L1145.269,242.31z"/>
	<path fill="#667290" d="M370.256,479.644c-32.467-2.526-96.823-5.261-141.945,7.136c-8.008,2.199-19.586,18.948-22.729,25.482
		c0,0,51.603,11.309,81.055,4.547C325.596,507.863,370.256,479.644,370.256,479.644z"/>
	<g>
		<polygon fill="#667290" points="762.291,384.721 805.23,368.965 803.625,379.258 759.953,395.6 		"/>
	</g>
	<g>
		<polygon fill="#667290" points="946.143,316.139 988.582,299.079 987.291,309.416 944.14,327.083 		"/>
	</g>
	<path opacity="0.2" fill="#FFFFFF" d="M553.896,408.629c214.794-144.381,320.367-174.077,490.542-195.803
		c0,0-116.235-46.309-249.477-1.206C620.392,270.715,553.896,408.629,553.896,408.629z"/>
	<g>
		<path fill="#BEC3CD" d="M566.125,419.537c0,0-3.854,1.002,5.841,7.574c10.567,7.164,48.286,19.383,57.99,15.512
			c13.604-5.426,17.987-35.131,11.02-37.461c-17.461-5.844-23.613-11.458-29.465-11.117
			C605.657,394.385,566.125,419.537,566.125,419.537z"/>
		<g>
			<defs>
				<path id="SVGID_3_" d="M550.75,414.799c0,0,29.465-31.111,43.271-31.376c10.746-0.206,35.821,0.797,41.629,15.021
					s-11.726,21.884-34.013,26.457c-22.288,4.572-37.514,1.092-42.919-1.82S550.75,414.799,550.75,414.799z"/>
			</defs>
			<use xlink:href="#SVGID_3_"  overflow="visible" fill="#EBEDF0"/>
			<clipPath id="SVGID_4_">
				<use xlink:href="#SVGID_3_"  overflow="visible"/>
			</clipPath>
			<path clip-path="url(#SVGID_4_)" fill="#C5C9D2" d="M622.721,384.605c0,0,1.925,15.434-23.023,21.415
				c-12.965,3.107-54.033,9.414-54.033,9.414l9.993,18.131l82.552,1.566l10.695-35.534l-15.097-20.392L622.721,384.605z"/>
		</g>
	</g>
	<g>
		<polygon fill="#001446" points="89.708,581.766 166.451,602.33 166.451,570.029 89.708,549.466 		"/>
		<polygon fill="#FFFFFF" points="84.881,582.839 161.625,603.403 161.625,571.104 84.881,550.539 		"/>
	</g>
	<path fill="#667290" d="M87.771,480.686c0,0,1.512-23.817-1.058-27.584c-6.243-9.152-7.45-13.299-6.516-22.816
		c1.274-12.979,2.937-21.656,2.937-21.656s-35.191,26.957-33.423,45.465C50.912,466.66,87.771,480.686,87.771,480.686z"/>
</g>
</svg>
