<?xml version="1.0" encoding="utf-8"?>
<!-- Generator: Adobe Illustrator 13.0.0, SVG Export Plug-In . SVG Version: 6.00 Build 14948)  -->
<!DOCTYPE svg PUBLIC "-//W3C//DTD SVG 1.1//EN" "http://www.w3.org/Graphics/SVG/1.1/DTD/svg11.dtd">
<svg version="1.1" id="Layer_1" xmlns="http://www.w3.org/2000/svg" xmlns:xlink="http://www.w3.org/1999/xlink" x="0px" y="0px"
	 width="1221px" height="800px" viewBox="0 0 1221 800" enable-background="new 0 0 1221 800" xml:space="preserve">
<g>
	<path opacity="0.5" d="M999.32,450.924c-42.989-11.602-113.335-11.602-156.324,0L59.382,641.708
		C-55.57,663.254,289.443,780.57,420.084,753.005c24.502-5.17,54.525-11.796,113.314-27.022
		c116.87-30.27,431.678-113.086,503.665-136.969c98.475-32.67,145.708-46.746,159.496-56.14
		c13.787-9.394,18.999-23.585-23.989-35.187L999.32,450.924z"/>
	<path fill="#EBEDF0" d="M233.236,316.709l-52.812,47.744c0,0-7.067-38.536,2.059-48.039
		C196.251,302.079,233.236,316.709,233.236,316.709z"/>
	<g>
		<defs>
			<path id="SVGID_1_" d="M448.046,350.914l24.327,6.566c3.021,0.815,5.121,3.573,5.121,6.723v61.114c0,3.53-2.48,6.567-5.921,7.246
				l-4.826,0.953c-1.27,0.25-2.579,0.209-3.831-0.122l-21.6-5.715c-4.31-1.141-7.314-5.065-7.314-9.554v-54.787
				c0-3.996,1.754-7.787,4.792-10.356l0,0C441.358,350.813,444.812,350.041,448.046,350.914z"/>
		</defs>
		<use xlink:href="#SVGID_1_"  overflow="visible" fill="#263762"/>
		<clipPath id="SVGID_2_">
			<use xlink:href="#SVGID_1_"  overflow="visible"/>
		</clipPath>
		<polygon clip-path="url(#SVGID_2_)" fill="#001446" points="475.422,436.829 467.401,436.829 467.401,366.484 475.422,362.604 		
			"/>
	</g>
	<g>
		<path fill="#001446" d="M916.357,457.902c-12.671,47.637,5.118,93.826,39.734,103.168c34.615,9.344,72.948-21.697,85.619-69.334
			c12.672-47.635-5.117-93.825-39.732-103.168C967.362,379.225,929.029,410.268,916.357,457.902z"/>
		<polygon fill="#001446" points="956.092,561.07 1007.182,574.861 1053.069,402.358 1001.979,388.568 		"/>
	</g>
	<g>
		<path fill="#001446" d="M319.281,619.191c-12.672,47.637,5.117,93.825,39.734,103.17c34.614,9.343,72.947-21.7,85.619-69.336
			c12.671-47.635-5.118-93.824-39.733-103.169C370.287,540.514,331.952,571.557,319.281,619.191z"/>
		<polygon fill="#001446" points="359.016,722.361 410.104,736.15 455.992,563.646 404.901,549.856 		"/>
	</g>
	<polygon fill="#001446" points="1098.253,482.338 1037.708,475.189 561.004,595.943 500.611,672.781 369.55,651.326 
		382.465,539.262 1129.309,336.793 1132.696,419.576 	"/>
	<path fill="#6A6774" d="M188.129,689.098"/>
	<g>
		<defs>
			<path id="SVGID_3_" d="M1159.936,350.562c0,0-4.261-71.141-19.652-113.407c-24.134-66.277-61.671-106.688-71.21-109.845
				c-36.284-12.757-238.583-68.58-257.649-65.84c-60.301,8.664-281.575,63.655-377.422,92.334
				c-45.475,13.607-43.437,8.109-93.981,41.827S175.306,365.926,175.306,365.926s-72.2,35.728-112.296,81.853
				c-29.136,33.516-24.858,59.833-27.391,63.904c-26.594,42.764-14.9,98.25,2.023,124.236
				c23.369,35.882,123.361,65.207,248.907,78.019c25.361,2.589,41.29-2.737,62.636-8.679c-1.439-22.799-4.816-47.451,0.045-72.031
				c11.199-56.635,51.277-100.267,101.468-93.203c37.162,5.23,67.239,52.134,54.964,132.756l442.641-126.253
				c0,0-6.343-54.138,0.484-81.86c13.774-55.926,64.566-96.058,102.35-85.859c35.619,9.613,56.098,55.556,50.002,103.529
				c12.295-11.383,30.256-7.697,49.924-30.902c7.111-8.39,17.771-33.479,17.739-76.738
				C1168.791,361.233,1159.936,350.562,1159.936,350.562z"/>
		</defs>
		<use xlink:href="#SVGID_3_"  overflow="visible" fill="#EBEDF0"/>
		<clipPath id="SVGID_4_">
			<use xlink:href="#SVGID_3_"  overflow="visible"/>
		</clipPath>
		<polygon clip-path="url(#SVGID_4_)" fill="#263762" points="647.958,206.642 462.864,157.045 691.476,101.807 876.569,151.403 		
			"/>
		<path clip-path="url(#SVGID_4_)" fill="#001446" d="M592.757,263.236c-103.548-16.129-213.39-47.746-252.736-67.605
			c-41.031,31.112-134.89,118.947-164.716,170.295c36.491,30.276,186.477,67.14,270.802,73.091
			C497.732,369.82,548.568,303.678,592.757,263.236z"/>
		<path clip-path="url(#SVGID_4_)" fill="#263762" d="M185.188,363.018c31.571,17.628,145.6,54.801,262.335,68.75
			c0,0,18.748-27.439,6.414-36.44c-41.545-30.317-105.516-15.823-153.318-26.83C191.043,343.266,185.188,363.018,185.188,363.018z"
			/>
		<polygon clip-path="url(#SVGID_4_)" fill="#263762" points="371.736,257.279 428.949,272.72 449.92,252.532 392.708,237.091 		"/>
		<path clip-path="url(#SVGID_4_)" fill="#C5C9D2" d="M1199.543,246.541c-148.441,60.948-610.508,202.936-726.814,230.844
			c-56.343,13.521-104.322,31.609-134.198,79.133c-25.55,40.644-25.011,89.366-85.068,96.682
			c-55.879,6.808-229.798-31.502-254.497-82.254c-8.002-16.443,20.607,114.176,20.607,114.176l247.653,57.369l938.118-267.301
			L1199.543,246.541z"/>
		<path opacity="0.2" clip-path="url(#SVGID_4_)" fill="#FFFFFF" d="M1021.934,74.799
			c-30.898,22.946-571.851,78.088-634.332,142.124c-48.047,49.242-88.057,119.87-114.979,189.168
			c-76.928,21.45-159.992,5.655-238.485,68.729l296.673-364.708l474.213-81.396L1021.934,74.799z"/>
	</g>
	<polygon fill="#263762" points="1102.754,297.348 942.557,345.296 941.113,331.281 1101.311,283.333 	"/>
	<path fill="#667290" d="M1147.784,260.508c5.874,24.01,9.483,55.48,12.151,90.054l-19.992,7.358l-1.722-69.716
		C1137.918,279.106,1147.784,260.508,1147.784,260.508z"/>
	<polygon fill="#667290" points="818.003,389.082 777.48,400.664 777.48,418.162 818.003,406.58 	"/>
	<polygon fill="#667290" points="744.539,409.542 704.018,421.123 704.018,438.622 744.539,427.041 	"/>
	<g>
		
			<ellipse transform="matrix(-0.9659 -0.2588 0.2588 -0.9659 680.4075 1389.9226)" fill="#263762" cx="431.698" cy="650.172" rx="64.888" ry="88.646"/>
		
			<ellipse transform="matrix(-0.9659 -0.2588 0.2588 -0.9659 680.406 1389.9222)" fill="#E6E8ED" cx="431.698" cy="650.172" rx="50.492" ry="68.98"/>
		
			<ellipse transform="matrix(-0.9659 -0.2588 0.2588 -0.9659 680.3969 1389.9263)" fill="#001446" cx="431.698" cy="650.172" rx="42.858" ry="58.551"/>
		<path fill="#E6E8ED" d="M459.808,647.293l11.838,18.687c3.246,5.122-1.313,14.077-6.94,13.632l-20.523-1.621
			c-2.447-0.194-5.07,1.559-6.646,4.442l-13.209,24.171c-3.621,6.625-10.996,5.647-11.229-1.49l-0.848-26.033
			c-0.1-3.104-1.722-5.42-4.106-5.866l-20.002-3.749c-5.482-1.027-5.482-10.586,0-14.553l20.002-14.467
			c2.385-1.727,4.007-4.91,4.106-8.068l0.848-26.486c0.232-7.263,7.607-12.192,11.229-7.507l13.209,17.093
			c1.575,2.039,4.198,2.387,6.646,0.881l20.523-12.622c5.629-3.46,10.187,3.052,6.94,9.915l-11.838,25.029
			C458.396,641.666,458.396,645.064,459.808,647.293z"/>
		
			<ellipse transform="matrix(-0.9659 -0.2588 0.2588 -0.9659 680.4347 1389.9131)" fill="#263762" cx="431.698" cy="650.172" rx="10.596" ry="14.476"/>
	</g>
	<g>
		
			<ellipse transform="matrix(-0.9659 -0.2588 0.2588 -0.9659 1895.9668 1227.371)" fill="#263762" cx="1028.775" cy="488.884" rx="64.888" ry="88.646"/>
		
			<ellipse transform="matrix(-0.9659 -0.2588 0.2588 -0.9659 1895.9529 1227.3865)" fill="#E6E8ED" cx="1028.775" cy="488.883" rx="50.492" ry="68.979"/>
		
			<ellipse transform="matrix(-0.9659 -0.2588 0.2588 -0.9659 1895.959 1227.3802)" fill="#001446" cx="1028.775" cy="488.884" rx="42.858" ry="58.551"/>
		<path fill="#E6E8ED" d="M1056.885,486.004l11.838,18.688c3.246,5.122-1.313,14.076-6.94,13.632l-20.523-1.622
			c-2.448-0.193-5.071,1.56-6.646,4.443l-13.209,24.17c-3.621,6.626-10.996,5.648-11.229-1.489l-0.848-26.033
			c-0.1-3.104-1.722-5.421-4.107-5.866l-20.001-3.749c-5.482-1.028-5.482-10.587,0-14.552l20.001-14.469
			c2.386-1.726,4.008-4.91,4.107-8.067l0.848-26.487c0.232-7.262,7.607-12.191,11.229-7.506l13.209,17.092
			c1.574,2.039,4.197,2.387,6.646,0.881l20.523-12.621c5.628-3.461,10.187,3.051,6.94,9.914l-11.838,25.029
			C1055.473,480.377,1055.473,483.775,1056.885,486.004z"/>
		<path fill="#263762" d="M1018.539,486.141c-2.069,7.724,0.836,15.211,6.489,16.725c5.652,1.516,11.912-3.518,13.981-11.238
			c2.069-7.725-0.834-15.212-6.488-16.727C1026.868,473.387,1020.609,478.418,1018.539,486.141z"/>
	</g>
	<g>
		<polygon fill="#001446" points="77.366,630.389 154.018,650.928 154.018,618.667 77.366,598.127 		"/>
		<polygon fill="#FFFFFF" points="72.545,631.461 149.197,652 149.197,619.738 72.545,599.199 		"/>
	</g>
	<path fill="#001446" d="M472.294,456.811l582.746-178.334c22.812-6.924,37.987-14.936,27.628-36.406
		c-15.889-32.927-38.532-88.887-78.087-83.337c-49.741,6.979-319.926,63.771-374.415,98.627
		C560.453,301.957,472.294,456.811,472.294,456.811z"/>
	<path fill="#667290" d="M192.465,574.645c32.743,3.186,74.759-5.365,94.085-11.746s61.994-39.212,22.01-37.516
		c-39.985,1.695-79.883,9.71-91.65,13.646C205.141,542.966,192.465,574.645,192.465,574.645z"/>
	<path fill="#667290" d="M66.148,540.496c-14.563-5.061-32.011-20.529-29.633-35.252c3.313-23.37,7.953-30.367,14.224-40.892
		c5.46-9.165,14.021,29.308,16.226,37.621S66.148,540.496,66.148,540.496z"/>
	<polygon fill="#263762" points="737.049,368.69 765.327,359.36 748.959,230.039 724.675,236.951 	"/>
	<polygon fill="#263762" points="921.424,313.232 949.703,303.902 916.414,188.456 893.573,193.924 	"/>
	<g>
		<path fill="none" stroke="#001446" stroke-width="1.4229" stroke-miterlimit="10" d="M592.757,263.236
			c0,0,35.942-29.015,90.12-47.919c36.26-12.651,290.084-77.208,382.05-89.204"/>
		<path fill="none" stroke="#001446" stroke-width="1.4229" stroke-miterlimit="10" d="M905.036,188.826l33.542,126.459
			c14.411,55.981-7.721,207.052-26.306,214.316c-18.586,7.264-386.806,109.063-386.806,109.063l-10.147-194.912l-4.853-38.082"/>
		<path fill="none" stroke="#001446" stroke-width="1.4229" stroke-miterlimit="10" d="M757.81,573.936
			c11.958-80.143,9.592-152.295-6.687-201.754L737.049,230.19"/>
		<path fill="none" stroke="#001446" stroke-width="1.4229" stroke-miterlimit="10" d="M308.56,525.383
			c0,0,98.225-55.904,112.235-63.184c13.207-6.861,19.027-14.773,25.312-23.182"/>
		<path fill="none" stroke="#001446" stroke-width="1.4229" stroke-miterlimit="10" d="M1080.725,397.346
			c0,0,9.525-21.325,22.029-25.978c12.504-4.652,57.193-20.607,57.193-20.607"/>
	</g>
	<path opacity="0.2" fill="#FFFFFF" d="M506.468,431.238c144.949-110.944,357.866-156.513,546.602-210.378
		c0,0-19.208-54.228-54.784-48.677c-43.185,6.738-304.083,64.041-353.202,95.462C582.239,307.847,506.468,431.238,506.468,431.238z"
		/>
	<g>
		<path fill="#BEC3CD" d="M523.431,434.811c0,0-4.294,1.116,6.508,8.438c11.774,7.982,53.796,21.595,64.608,17.281
			c15.156-6.044,20.04-39.138,12.276-41.735c-19.453-6.51-26.308-12.766-32.827-12.385
			C567.475,406.788,523.431,434.811,523.431,434.811z"/>
		<g>
			<defs>
				<path id="SVGID_5_" d="M506.303,429.532c0,0,32.826-34.662,48.209-34.958c11.972-0.229,39.908,0.888,46.379,16.736
					c6.471,15.846-13.063,24.381-37.895,29.475c-24.832,5.094-41.794,1.217-47.816-2.026
					C509.158,435.514,506.303,429.532,506.303,429.532z"/>
			</defs>
			<use xlink:href="#SVGID_5_"  overflow="visible" fill="#EBEDF0"/>
			<clipPath id="SVGID_6_">
				<use xlink:href="#SVGID_5_"  overflow="visible"/>
			</clipPath>
			<path clip-path="url(#SVGID_6_)" fill="#C5C9D2" d="M586.485,395.892c0,0,2.145,17.195-25.651,23.858
				c-14.443,3.463-60.197,10.488-60.197,10.488l11.133,20.199l91.972,1.746l11.916-39.589l-16.819-22.72L586.485,395.892z"/>
		</g>
	</g>
	<path fill="#CBCFD7" d="M192.465,574.645c-53.861-10.615-87.656-20.246-126.316-34.148l-3.034,5.395
		c-2.122,12.5,5.417,24.607,17.566,28.23c24.71,7.367,53.561,15.006,84.793,21.686c11.765,2.516,23.667-4.381,28.353-15.463
		L192.465,574.645z"/>
	
		<ellipse transform="matrix(0.9436 0.3312 -0.3312 0.9436 185.5144 -10.6338)" fill="#667290" cx="123.959" cy="539.029" rx="8.41" ry="10.306"/>
</g>
</svg>
