<?xml version="1.0" encoding="utf-8"?>
<!-- Generator: Adobe Illustrator 13.0.0, SVG Export Plug-In . SVG Version: 6.00 Build 14948)  -->
<!DOCTYPE svg PUBLIC "-//W3C//DTD SVG 1.1//EN" "http://www.w3.org/Graphics/SVG/1.1/DTD/svg11.dtd">
<svg version="1.1" id="Layer_1" xmlns="http://www.w3.org/2000/svg" xmlns:xlink="http://www.w3.org/1999/xlink" x="0px" y="0px"
	 width="1221px" height="800px" viewBox="0 0 1221 800" enable-background="new 0 0 1221 800" xml:space="preserve">
<g>
	<path fill="#EBEDF0" d="M255.968,261.861l-41.577,32.456c0,0,4.295-23.633,12.769-32.456
		C239.942,248.55,255.968,261.861,255.968,261.861z"/>
	<path fill="#EBEDF0" d="M1111.214,170.087l-269.506,95.909L581.293,186.78l284.01-88.464c6.439-1.967,13.301-2.094,19.808-0.364
		l225.478,59.902C1116.632,159.459,1117.063,167.873,1111.214,170.087z"/>
	<polygon fill="#263762" points="716.556,155.568 875.215,106.924 1090.942,164.728 823.574,253.112 	"/>
	<polygon fill="#33436B" points="875.215,106.924 879.231,173.428 976.49,202.563 1090.942,164.728 	"/>
	<polygon fill="#001446" points="879.231,173.428 875.215,106.924 716.556,155.568 773.038,206.604 	"/>
	<path opacity="0.5" d="M982.73,402.396c-42.76-11.54-112.729-11.54-155.49,0L47.806,592.164
		c-114.339,21.43,228.835,138.121,358.779,110.703c24.37-5.143,54.233-11.734,112.709-26.879
		c116.247-30.107,429.376-112.484,500.979-136.238c97.95-32.496,144.932-46.496,158.646-55.84s18.897-23.459-23.86-35
		L982.73,402.396z"/>
	<polygon fill="#001446" points="1061.985,411.648 910.856,401.057 545.826,512.301 513.705,572.543 371.176,562.457 
		382.957,460.969 995.707,290.289 1075.697,332.948 	"/>
	<g>
		<g>
			
				<ellipse transform="matrix(-0.9659 -0.2588 0.2588 -0.9659 92.6775 1024.0591)" fill="#001446" cx="113.751" cy="505.929" rx="68.499" ry="93.58"/>
			
				<rect x="112.8" y="419.574" transform="matrix(-0.9659 -0.2588 0.2588 -0.9659 143.8303 1045.2439)" fill="#001446" width="55.836" height="187.16"/>
		</g>
		
			<ellipse transform="matrix(-0.9659 -0.2588 0.2588 -0.9659 192.2717 1065.3086)" fill="#263762" cx="166.26" cy="519.998" rx="68.499" ry="93.579"/>
	</g>
	<g>
		
			<ellipse transform="matrix(-0.9659 -0.2588 0.2588 -0.9659 1722.5078 1080.7096)" fill="#001446" cx="932.392" cy="426.971" rx="68.499" ry="93.581"/>
		
			<rect x="931.44" y="340.616" transform="matrix(-0.9659 -0.2588 0.2588 -0.9659 1773.6525 1101.8953)" fill="#001446" width="55.836" height="187.161"/>
	</g>
	<g>
		
			<ellipse transform="matrix(-0.9659 -0.2588 0.2588 -0.9659 597.9858 1226.1038)" fill="#001446" cx="379.701" cy="573.689" rx="68.499" ry="93.581"/>
		
			<rect x="378.749" y="487.336" transform="matrix(-0.9659 -0.2588 0.2588 -0.9659 649.1334 1247.2888)" fill="#001446" width="55.837" height="187.16"/>
	</g>
	<g>
		<defs>
			<path id="SVGID_1_" d="M1160.436,270.885l-16.639-12.144c-3.969-53.621-5.277-89.19-30.856-99.712
				c3.802,3.661,3.167,7.348-1.727,11.058L852.6,254.333c-7.513,2.446-15.661-1.283-18.729-8.565
				c-11.893-28.229-19.401-49.968-28.296-70.165c-3.869-8.788-11.578-15.299-20.865-17.742l-211.889-55.755
				c0,0-87.371,20.404-169.604,42.512C331.16,163.988,221.07,289.771,221.07,289.771S86.289,340,36.839,384.645
				c-14.461,13.055-13.226,90.216,0,146.218c7.025,29.75,246.907,86.951,294.438,83.012l16.313-4.566
				c-1.313-20.646,3.146-54.023,9.899-77.66c14.367-50.285,63.734-80.477,99.19-74.658c33.776,5.541,68.224,42.539,57.026,115.553
				l32.78-14.592c84.198-28.205,175.471-53.139,275.775-73.893l79.15-13.883c0-22.781,1.307-62.924,9.004-87.62
				c18.009-57.776,70.58-79.769,105.049-70.532c32.491,8.706,52.081,56.18,46.521,99.625c11.214-10.309,98.479-54.795,98.45-93.971
				C1160.427,305.484,1160.436,270.885,1160.436,270.885z"/>
		</defs>
		<use xlink:href="#SVGID_1_"  overflow="visible" fill="#EBEDF0"/>
		<clipPath id="SVGID_2_">
			<use xlink:href="#SVGID_1_"  overflow="visible"/>
		</clipPath>
		<path clip-path="url(#SVGID_2_)" fill="#001446" d="M606.98,218.503c-126.106-16.694-205.437-42.703-231.293-62.432
			c-45.536,24.104-93.183,65.748-154.617,133.699c0,32.472,82.992,67.895,245.11,71.64
			C519.621,298.449,575.398,231.699,606.98,218.503z"/>
		<path clip-path="url(#SVGID_2_)" fill="#263762" d="M230.563,289.771c30.103,35.215,115.85,50.924,245.908,59.51
			c0,0,24.224-33.27-77.68-56.564C290.142,267.88,230.563,289.771,230.563,289.771z"/>
		<polygon clip-path="url(#SVGID_2_)" fill="#263762" points="385.532,212.596 442.262,227.796 463.798,208.123 407.068,192.922 		
			"/>
		<polygon clip-path="url(#SVGID_2_)" fill="#263762" points="603.271,187.481 458.38,148.658 554.201,124.662 691.877,162.031 		
			"/>
		<path clip-path="url(#SVGID_2_)" fill="#C5C9D2" d="M10.879,522.068c4.223,33.471,164.408,22.131,164.408,22.131
			c24.369-4.383,37.776-17.709,41.053-39.297l99.838-61.697c56.66-23.221,109.547-45.434,130.067-58.999l51.353-5.626
			L756.015,186.27l162.544-43.105l231.576-2.912l60.624,275.498L307.491,780.094L-6.015,596.662L10.879,522.068z"/>
		<path opacity="0.2" clip-path="url(#SVGID_2_)" fill="#FFFFFF" d="M46.388,544.566c1.071-51.121,4.038-94.795,5.292-110.492
			c1.895-23.711,1.854-26.814,32.67-34.797c41.778-10.825,138.115-42.307,213.048-58.559
			c30.852-46.401,115.413-160.706,157.527-173.11c55.31-16.291,287.541-72.479,360.137-90.041l-56.839-21.345l-377.048,66.365
			L-30.09,403.793L-16.695,533.4L46.388,544.566z"/>
	</g>
	<path fill="#6A6774" d="M205.678,596.662"/>
	<path fill="#001230" d="M203.453,300.339"/>
	<path fill="#667290" d="M60.027,433.115v30.229c0,0-22.557-31.666-22.532-52.713c0.023-21.049,13.069-37.022,13.069-37.022
		c-3.77,10.071-2.972,23.738,2.613,36.211C56.194,416.557,60.027,425.732,60.027,433.115z"/>
	
		<ellipse transform="matrix(0.2922 0.9564 -0.9564 0.2922 504.7363 163.2763)" fill="#667290" cx="142.065" cy="422.617" rx="11.187" ry="15.283"/>
	<path fill="#001446" d="M251.383,604.564c8.536-0.918-10.429-32.064-14.583-36.598c-9.849-10.746-67.874-25.682-120.155-39.813
		c-46.881-12.668-63.563-15.443-68.355-11.145c-3.128,2.807-13.161,19.324-7.567,23.65c13.001,10.059,42.943,23.082,86.279,35.58
		C173.898,589.766,241.48,605.631,251.383,604.564z"/>
	<g>
		<polygon fill="#667290" points="689.846,346.775 728.687,332.523 728.96,343.058 689.457,357.84 		"/>
	</g>
	<path fill="#001446" d="M497.598,378.581c84.956-19.176,171.675-42.614,258.417-75.12c25.177-9.435,22.854-25.743,23.503-38.052
		c0.933-17.73,0.467-34.061,0.467-61.122c0-22.85-23.078-18.354-31.292-16.066c-63.894,17.801-121.726,36.353-133.328,45.565
		C553.263,283.103,497.598,378.581,497.598,378.581z"/>
	<polygon fill="#263762" points="707.5,206.107 718.171,308.434 744.051,299.956 731.078,199.463 	"/>
	<g>
		<path fill="none" stroke="#001446" stroke-width="1.4229" stroke-miterlimit="10" d="M603.536,219.599
			c0,0,11.759-5.977,20.821-9.24c16.226-5.841,99.416-30.696,167.972-49.382"/>
		<g>
			<path fill="none" stroke="#001446" stroke-width="1.4229" stroke-miterlimit="10" d="M719.197,200.485
				c4.845,37.686,12.299,111.225,12.299,111.225s8.754,20.748,10.006,42.734c2.549,44.754,0.385,100.978-5.278,123.363"/>
			<path fill="none" stroke="#001446" stroke-width="1.4229" stroke-miterlimit="10" d="M497.598,378.581
				c15.393,16.37,19.186,85.433,28.292,143.552c0.993,6.34,7.266,10.406,13.468,8.762c0,0,245.468-66.689,281.633-73.578
				s81.142-14.111,81.142-14.111"/>
			<path fill="none" stroke="#001446" stroke-width="1.4229" stroke-miterlimit="10" d="M292.103,484.031
				c0,0,51.738-16.584,65.437-16.303c9.266,0.191,15.479,17.65,16.563,30.17"/>
			<path fill="none" stroke="#001446" stroke-width="1.4229" stroke-miterlimit="10" d="M466.181,361.411
				c0,0-13.348,15.355-19.936,22.796c-8.979,10.14-112.55,50.25-130.067,58.999"/>
			<polyline fill="none" stroke="#001446" stroke-width="1.4229" stroke-miterlimit="10" points="1143.797,258.741 
				1039.271,310.468 1031.919,320.436 			"/>
		</g>
	</g>
	<path opacity="0.1" fill="#FFFFFF" d="M510.234,372.445c97.262-61.67,263.684-138.297,263.684-138.297s0.292-12.489-0.466-26.129
		c-0.467-8.398-1.222-19.645-17.264-15.397c-69.315,18.351-125.424,35.662-137.184,45.001
		C558.549,285.633,510.234,372.445,510.234,372.445z"/>
	<g>
		<path fill="#BEC3CD" d="M526.769,379.417c0,0-4.61,0.22,4.386,7.978c9.807,8.455,46.52,8.139,56.015,6.54
			c15.2-2.558,19.23-14.903,12.963-20.653c-12.933-11.864-27.58-21.761-32.886-21.543
			C561.94,351.955,526.769,379.417,526.769,379.417z"/>
		<g>
			<defs>
				<path id="SVGID_3_" d="M512.669,373.58c0,0,25.855-34.533,38.386-34.434c9.752,0.078,32.556,1.947,38.243,18.296
					c5.688,16.348-10.013,24.552-30.122,29.105c-20.108,4.554-34.037,0.153-39.03-3.316
					C515.152,379.762,512.669,373.58,512.669,373.58z"/>
			</defs>
			<use xlink:href="#SVGID_3_"  overflow="visible" fill="#EBEDF0"/>
			<clipPath id="SVGID_4_">
				<use xlink:href="#SVGID_3_"  overflow="visible"/>
			</clipPath>
			<path clip-path="url(#SVGID_4_)" fill="#C5C9D2" d="M577.152,341.326c0,0,2.196,17.611-20.287,23.689
				c-11.684,3.159-48.798,9.139-48.798,9.139l9.602,20.914l75.019,4.179l8.681-40.108l-14.304-23.634L577.152,341.326z"/>
		</g>
	</g>
	<path fill="#667290" d="M260.701,455.811l55.477-12.605c0,0-3.024,35.049-15.61,38.938c-28.183,8.707-84.228,22.76-84.228,22.76
		l0,0C219.299,480.822,237.043,461.186,260.701,455.811z"/>
	<path fill="#667290" d="M1128.709,172.649c0,0-2.54,18.685-4.707,54.314l-3.685,43.397l23.479-11.619
		C1143.797,258.742,1141.135,174.132,1128.709,172.649z"/>
	<g>
		<polygon fill="#001446" points="82.701,530.723 175.287,555.531 175.287,516.564 82.701,491.754 		"/>
		<polygon fill="#F7F6F6" points="76.877,532.018 169.465,556.826 169.465,517.857 76.877,493.049 		"/>
	</g>
	<path fill="#C5C9D2" d="M77.883,476.846c32.453,13.088,69.089,22.414,108.591,29.16c12.265,2.096,23.816-6.443,25.334-18.793
		L213.626,471L64.444,431.262v25.471C64.444,465.539,69.717,473.553,77.883,476.846z"/>
	<g>
		
			<ellipse transform="matrix(-0.9659 -0.2588 0.2588 -0.9659 697.573 1267.3544)" fill="#263762" cx="432.209" cy="587.76" rx="68.499" ry="93.579"/>
		
			<ellipse transform="matrix(-0.9659 -0.2588 0.2588 -0.9659 697.5712 1267.355)" fill="#E6E8ED" cx="432.209" cy="587.76" rx="48.629" ry="66.436"/>
		
			<ellipse transform="matrix(-0.9659 -0.2588 0.2588 -0.9659 697.6097 1267.34)" fill="#263762" cx="432.209" cy="587.76" rx="11.186" ry="15.282"/>
		<g>
			<path fill="#0D204F" d="M437.078,543.982l-9.441,2.529c-3.633,0.975-6.604-1.416-6.604-5.309v-1.529
				c0-3.895,2.972-7.877,6.604-8.85l9.441-2.529c3.633-0.975,6.605,1.416,6.605,5.309v1.529
				C443.684,539.027,440.711,543.01,437.078,543.982z"/>
			<path fill="#0D204F" d="M437.078,644.238l-9.441,2.529c-3.633,0.975-6.604-1.416-6.604-5.309v-1.529
				c0-3.895,2.972-7.877,6.604-8.85l9.441-2.529c3.633-0.975,6.605,1.416,6.605,5.309v1.531
				C443.684,639.283,440.711,643.266,437.078,644.238z"/>
			<path fill="#0D204F" d="M398.052,589.584v14.277c0,3.752-2.863,7.59-6.363,8.527l0,0c-3.501,0.938-6.364-1.365-6.364-5.115
				v-14.277c0-3.752,2.863-7.59,6.363-8.527h0.001C395.188,583.531,398.052,585.834,398.052,589.584z"/>
			<path fill="#0D204F" d="M479.391,567.789v14.277c0,3.752-2.863,7.588-6.363,8.525l0,0c-3.5,0.939-6.364-1.363-6.364-5.115
				v-14.277c0-3.752,2.864-7.588,6.364-8.525l0,0C476.527,561.736,479.391,564.037,479.391,567.789z"/>
			<path fill="#0D204F" d="M404.446,620.406l7.307,7.049c2.396,2.311,2.396,7.141,0,10.734l-0.29,0.436
				c-2.395,3.594-6.314,4.645-8.71,2.334l-7.307-7.049c-2.396-2.311-2.396-7.141,0-10.734l0.29-0.436
				C398.132,619.146,402.051,618.096,404.446,620.406z"/>
			<path fill="#0D204F" d="M461.961,534.104l7.308,7.047c2.396,2.311,2.396,7.143,0,10.736l-0.29,0.436
				c-2.396,3.594-6.314,4.645-8.71,2.334l-7.307-7.049c-2.396-2.311-2.396-7.141,0-10.736l0.289-0.434
				C455.646,532.842,459.566,531.793,461.961,534.104z"/>
			<path fill="#0D204F" d="M452.962,616.412l7.307-10.963c2.396-3.596,6.314-4.645,8.71-2.334l0.29,0.279
				c2.396,2.311,2.396,7.141,0,10.734l-7.307,10.965c-2.396,3.594-6.314,4.645-8.71,2.334l-0.29-0.279
				C450.566,624.838,450.566,620.006,452.962,616.412z"/>
			<path fill="#0D204F" d="M395.445,560.934l7.307-10.965c2.396-3.594,6.315-4.645,8.711-2.334l0.289,0.279
				c2.396,2.311,2.396,7.143,0.001,10.736l-7.308,10.965c-2.395,3.594-6.314,4.645-8.71,2.334l-0.29-0.281
				C393.051,569.357,393.051,564.527,395.445,560.934z"/>
		</g>
	</g>
	<g>
		
			<ellipse transform="matrix(-0.9659 -0.2588 0.2588 -0.9659 1822.095 1121.959)" fill="#263762" cx="984.9" cy="441.041" rx="68.499" ry="93.579"/>
		
			<ellipse transform="matrix(-0.9659 -0.2588 0.2588 -0.9659 1822.1067 1121.943)" fill="#E6E8ED" cx="984.9" cy="441.04" rx="48.629" ry="66.437"/>
		
			<ellipse transform="matrix(-0.9659 -0.2588 0.2588 -0.9659 1822.1318 1121.9138)" fill="#263762" cx="984.9" cy="441.041" rx="11.186" ry="15.28"/>
		<g>
			<path fill="#0D204F" d="M989.769,397.263l-9.442,2.53c-3.632,0.972-6.604-1.416-6.604-5.31v-1.53
				c0-3.894,2.973-7.875,6.604-8.849l9.442-2.53c3.633-0.973,6.604,1.416,6.604,5.31v1.53
				C996.373,392.308,993.401,396.29,989.769,397.263z"/>
			<path fill="#0D204F" d="M989.769,497.52l-9.442,2.529c-3.632,0.973-6.604-1.416-6.604-5.309v-1.531
				c0-3.893,2.973-7.875,6.604-8.848l9.442-2.529c3.633-0.975,6.604,1.414,6.604,5.309v1.529
				C996.373,492.564,993.401,496.545,989.769,497.52z"/>
			<path fill="#0D204F" d="M950.742,442.865v14.277c0,3.752-2.864,7.588-6.364,8.527l0,0c-3.5,0.938-6.364-1.365-6.364-5.117
				v-14.277c0-3.75,2.864-7.588,6.364-8.525l0,0C947.878,436.813,950.742,439.113,950.742,442.865z"/>
			<path fill="#0D204F" d="M1032.081,421.07v14.277c0,3.752-2.863,7.588-6.364,8.525l0,0c-3.5,0.938-6.363-1.363-6.363-5.115V424.48
				c0-3.752,2.863-7.588,6.363-8.525l0,0C1029.217,415.016,1032.081,417.318,1032.081,421.07z"/>
			<path fill="#0D204F" d="M957.137,473.688l7.307,7.047c2.396,2.311,2.396,7.143,0,10.736l-0.29,0.436
				c-2.396,3.594-6.314,4.645-8.71,2.334l-7.307-7.049c-2.396-2.311-2.396-7.143,0-10.736l0.29-0.434
				C950.821,472.426,954.741,471.377,957.137,473.688z"/>
			<path fill="#0D204F" d="M1014.651,387.383l7.307,7.049c2.396,2.311,2.396,7.142,0,10.736l-0.29,0.436
				c-2.395,3.594-6.314,4.645-8.709,2.334l-7.308-7.049c-2.396-2.311-2.396-7.142,0-10.736l0.29-0.436
				C1008.337,386.124,1012.256,385.073,1014.651,387.383z"/>
			<path fill="#0D204F" d="M1005.652,469.693l7.307-10.965c2.396-3.594,6.314-4.645,8.71-2.334l0.29,0.279
				c2.396,2.311,2.396,7.143,0,10.736l-7.307,10.965c-2.396,3.594-6.315,4.645-8.711,2.334l-0.289-0.279
				C1003.257,478.119,1003.257,473.287,1005.652,469.693z"/>
			<path fill="#0D204F" d="M948.136,414.213l7.307-10.963c2.396-3.594,6.314-4.645,8.71-2.334l0.29,0.279
				c2.396,2.311,2.396,7.141,0,10.736l-7.307,10.963c-2.396,3.596-6.314,4.645-8.71,2.334l-0.29-0.279
				C945.74,422.639,945.74,417.809,948.136,414.213z"/>
		</g>
	</g>
</g>
</svg>
