<?xml version="1.0" encoding="utf-8"?>
<!-- Generator: Adobe Illustrator 13.0.0, SVG Export Plug-In . SVG Version: 6.00 Build 14948)  -->
<!DOCTYPE svg PUBLIC "-//W3C//DTD SVG 1.1//EN" "http://www.w3.org/Graphics/SVG/1.1/DTD/svg11.dtd">
<svg version="1.1" id="Layer_1" xmlns="http://www.w3.org/2000/svg" xmlns:xlink="http://www.w3.org/1999/xlink" x="0px" y="0px"
	 width="1221px" height="800px" viewBox="0 0 1221 800" enable-background="new 0 0 1221 800" xml:space="preserve">
<g>
	<path fill="#EBEDF0" d="M275.056,292.431l-33.365,26.044c0,0,3.446-18.964,10.246-26.044
		C262.194,281.749,275.056,292.431,275.056,292.431z"/>
	<path opacity="0.5" d="M963.501,419.969c-37.648-10.162-99.256-10.162-136.904,0L140.326,587.052
		c-100.673,18.87,201.482,121.612,315.895,97.472c21.457-4.527,47.751-10.33,99.237-23.666
		c102.353-26.509,378.054-99.039,441.098-119.954c86.242-28.611,127.608-40.938,139.684-49.165
		c12.074-8.229,16.638-20.655-21.01-30.816L963.501,419.969z"/>
	<polygon fill="#001446" points="1062.652,446.205 975.201,418.578 596.352,534.034 539.174,606.254 415.089,586.088 
		427.317,480.758 1004.8,321.551 1092.137,379.533 	"/>
	<g>
		
			<ellipse transform="matrix(-0.9659 -0.2588 0.2588 -0.9659 1745.9543 1100.8694)" fill="#001446" cx="945.443" cy="435.505" rx="63.098" ry="86.202"/>
		
			<rect x="944.565" y="355.96" transform="matrix(-0.9659 -0.2588 0.2588 -0.9659 1793.063 1120.3859)" fill="#001446" width="51.435" height="172.402"/>
	</g>
	<g>
		
			<ellipse transform="matrix(-0.9659 -0.2588 0.2588 -0.9659 682.1758 1241.3939)" fill="#001446" cx="422.807" cy="575.791" rx="63.098" ry="86.202"/>
		
			<rect x="421.929" y="496.244" transform="matrix(-0.9659 -0.2588 0.2588 -0.9659 729.2781 1260.9113)" fill="#001446" width="51.436" height="172.404"/>
	</g>
	<g>
		<defs>
			<path id="SVGID_1_" d="M1024.383,183.201c-115.118-37.128-345.166-88.552-492.396-45.944
				c-150.158,43.455-298.584,188.622-298.584,188.622s-87.881,45.37-131.372,80.303c-46.594,37.427-46.067,110.128-35.438,149.73
				c8.225,30.641,216.8,78.529,264.513,78.151c13.687,2.846,34.778,2.753,55.23,2.495l9.472-2.49
				c-1.363-21.428-0.461-41.887,4.141-64.989c10.604-53.23,55.17-88.894,91.969-82.854c35.054,5.751,58.877,44.252,47.255,120.029
				l52.971-24.841c87.388-29.274,182.115-55.151,286.216-76.69l38.765-4.6c0-23.643,1.652-44.469,8.117-70.525
				c13.041-52.566,57.028-84.859,92.803-75.273c33.722,9.035,50.379,46.791,44.608,91.881c15.117-7.772,23.6-16.881,28.301-30.639
				c8.445-24.719,10.31-55.951,9.064-68.596c-0.611-6.198-1.87-12.656-3.645-19.25
				C1085.589,287.63,1023.296,188.673,1024.383,183.201z"/>
		</defs>
		<use xlink:href="#SVGID_1_"  overflow="visible" fill="#EBEDF0"/>
		<clipPath id="SVGID_2_">
			<use xlink:href="#SVGID_1_"  overflow="visible"/>
		</clipPath>
		<path clip-path="url(#SVGID_2_)" fill="#001446" d="M753.866,203.152c83.321-27.525,144.826-32.615,258.928-21.869l11.589,1.917
			c-115.314-37.159-345.372-88.491-492.396-45.944c-37.776,10.932-75.44,28.306-110.663,48.182
			c-1.907,1.231-3.816,2.464-5.729,3.724c-32.131,18.715-61.148,37.989-87.835,57.681c-22.534,16.771-42.064,32.699-57.425,45.81
			c-12.411,10.664-24.344,21.415-35.903,32.231c-0.673,0.646-1.026,0.993-1.027,0.994c24.027,39.808,112.599,71.349,280.853,75.236
			C514.258,401.115,605.435,252.186,753.866,203.152z"/>
		<path clip-path="url(#SVGID_2_)" fill="#263762" d="M787.127,192.594c-9.047,2.598-16.174,5.027-27.598,8.663
			c-72.663-26.476-150.448-47.079-232.98-62.381l29.703-7.507C632.548,143.692,709.021,164.641,787.127,192.594z"/>
		<path clip-path="url(#SVGID_2_)" fill="#263762" d="M453.673,168.306l-24.212,12.613c45.283,25.733,134.01,46.177,239.061,64.056
			c6.088-4.112,13.361-8.372,21.775-13.266C593.191,212.905,510.029,192.319,453.673,168.306z"/>
		<path clip-path="url(#SVGID_2_)" fill="#263762" d="M246.901,326.861c31.242,36.548,124.754,56.508,259.736,65.419
			c0,0,14.718-37.154-91.042-61.33C302.833,305.173,246.901,326.861,246.901,326.861z"/>
		<polygon clip-path="url(#SVGID_2_)" fill="#263762" points="458.936,228.601 517.813,244.376 540.165,223.958 481.286,208.181 		
			"/>
		<path opacity="0.2" clip-path="url(#SVGID_2_)" fill="#FFFFFF" d="M59.334,528.025c-4.088-123.48,143.26-155.635,239.526-157.557
			c65.132-69.513,227.688-269.712,458.823-246.951l118.571-15.811L743.942,92.882l-272.769,38.487L13.541,453.61L59.334,528.025z"/>
		<path clip-path="url(#SVGID_2_)" fill="#C5C9D2" d="M-6.802,592.4c0,0,31.18-99.889,36.821-80.645
			c7.189,24.527,190.752,84.308,235.603,87.408c25.545,1.767,65.709-14.83,90.355-47.582c13.681-18.179,25.696-56.916,90.345-96.064
			c13.558-8.21,33.702-18.479,93.087-33.379c350.666-87.981,449.515-146.368,462.555-155.106
			c13.041-8.738,76.753-99.28,76.753-99.28l99.868,319.697L325.17,694.836L60.701,636.678L-6.802,592.4z"/>
	</g>
	<g>
		
			<ellipse transform="matrix(-0.9659 -0.2588 0.2588 -0.9659 773.725 1279.6101)" fill="#263762" cx="471.094" cy="588.874" rx="63.008" ry="86.079"/>
		
			<ellipse transform="matrix(-0.9659 -0.2588 0.2588 -0.9659 773.7195 1279.6111)" fill="#E6E8ED" cx="471.093" cy="588.874" rx="47.041" ry="64.265"/>
		
			<ellipse transform="matrix(-0.9659 -0.2588 0.2588 -0.9659 773.7238 1279.6089)" fill="#001446" cx="471.094" cy="588.873" rx="38.358" ry="52.403"/>
		<polygon fill="#E6E8ED" points="512.735,559.269 505.821,546.358 478.794,572.834 478.794,534.367 464.965,538.074 
			464.965,576.539 437.938,564.549 431.023,581.162 458.05,593.154 431.023,619.629 437.938,632.539 464.965,606.063 
			464.965,644.529 478.794,640.823 478.794,602.357 505.821,614.348 512.735,597.734 485.709,585.742 		"/>
		
			<ellipse transform="matrix(-0.9659 -0.2588 0.2588 -0.9659 773.7096 1279.616)" fill="#263762" cx="471.094" cy="588.874" rx="6.02" ry="8.224"/>
	</g>
	<path fill="#001446" d="M539.174,409.285c149.149-44.883,298.795-87.889,433.238-143.553c3.521-1.458,6.696-2.6,9.154-4.193
		c8.432-5.464,34.338-60.23,34.338-60.23c-64.191-13.804-173.627-14.653-241.265,9.363
		C605.868,270.595,539.174,409.285,539.174,409.285z"/>
	<path fill="#6A6774" d="M243.325,621.59"/>
	<polygon fill="#263762" points="764.3,221.42 775.316,332.224 802.177,323.425 788.694,213.437 	"/>
	<polygon fill="#263762" points="950.085,270.993 968.354,263.559 947.466,199.526 930.799,198.327 	"/>
	<path fill="#C5C9D2" d="M290.762,629.791c8.858-0.953-37.393-65.53-41.702-70.234c-10.222-11.155-41.711-22.271-96.406-35.226
		c-46.966-11.123-56.823-6.315-61.798-1.854c-3.246,2.912-24.536,36.5-18.73,40.99c13.492,10.439,44.568,23.957,89.545,36.929
		C210.344,614.432,280.483,630.898,290.762,629.791z"/>
	<path fill="#667290" d="M1048.823,246.908c7.427,15.294,30.261,64.617,35.078,83.117l11.289-6.472
		c-6.073-25.503-40.894-90.35-46.367-93.871C1043.674,231.395,1048.823,246.908,1048.823,246.908z"/>
	<g>
		<polygon fill="#001446" points="121.526,563.126 199.542,584.031 199.542,551.195 121.526,530.291 		"/>
		<polygon fill="#FFFFFF" points="116.619,564.217 194.636,585.121 194.636,552.287 116.619,531.381 		"/>
	</g>
	<g>
		<polygon fill="#667290" points="746.567,378.671 786.878,363.88 785.371,373.542 744.371,388.883 		"/>
	</g>
	<g>
		<polygon fill="#667290" points="919.168,314.285 959.008,298.271 957.797,307.974 917.286,324.56 		"/>
	</g>
	<path opacity="0.2" fill="#FFFFFF" d="M553.422,404.563c223.511-164.604,446.409-182.396,446.409-182.396l7.59-16.564
		c-71.732-9.145-148.099-17.1-228.074,11.038C614.505,274.635,553.422,404.563,553.422,404.563z"/>
	<g>
		<path fill="#BEC3CD" d="M562.406,411.357c0,0,0.861-2.137,9.963,4.033c9.921,6.726,45.883,14.133,54.995,10.497
			c12.771-5.095,13.741-18.504,9.008-23.521c-14.663-15.542-25.864-15.262-31.359-14.942
			C599.519,387.744,562.406,411.357,562.406,411.357z"/>
		<g>
			<defs>
				<path id="SVGID_3_" d="M547.973,406.908c0,0,27.662-29.207,40.623-29.456c10.087-0.194,33.629,0.748,39.081,14.101
					c5.452,13.354-11.008,20.545-31.931,24.838c-20.925,4.292-35.218,1.025-40.293-1.709
					C550.379,411.949,547.973,406.908,547.973,406.908z"/>
			</defs>
			<use xlink:href="#SVGID_3_"  overflow="visible" fill="#EBEDF0"/>
			<clipPath id="SVGID_4_">
				<use xlink:href="#SVGID_3_"  overflow="visible"/>
			</clipPath>
			<path clip-path="url(#SVGID_4_)" fill="#C5C9D2" d="M615.537,378.562c0,0,1.807,14.49-21.614,20.105
				c-12.17,2.917-50.726,8.836-50.726,8.836l9.381,17.021l77.501,1.471l10.041-33.359l-14.173-19.143L615.537,378.562z"/>
		</g>
	</g>
	<path fill="#667290" d="M185.593,460.31c-4.979,2.762-10.844,1.708-13.1-2.354c-2.258-4.063-0.051-9.595,4.928-12.356
		c4.978-2.762,10.843-1.707,13.099,2.354C192.778,452.016,190.572,457.547,185.593,460.31z"/>
	<g>
		<path fill="none" stroke="#001446" stroke-width="1.4229" stroke-miterlimit="10" d="M776.286,211.122
			c5.027,39.112,13.481,121.215,13.481,121.215s12.066,15.134,9.668,37.864c-3.889,36.828-8.864,102.838-5.479,128.033"/>
		<path fill="none" stroke="#001446" stroke-width="1.4229" stroke-miterlimit="10" d="M539.639,408.856
			c17.073,18.158,20.326,86.96,31.326,149.424l297.647-80.149c12.573-3.368,24.27-14.43,31.006-29.317l63.57-124.405
			c7.096-15.683,7.923-37.617-2.562-53.845l-21.587-75.859"/>
		<path fill="none" stroke="#001446" stroke-width="1.4229" stroke-miterlimit="10" d="M513.689,400.934
			c0,0-1.26,7.359-12.374,13.426c-12.339,6.732-119.855,51.735-146.777,64.328"/>
		<path fill="none" stroke="#001446" stroke-width="1.4229" stroke-miterlimit="10" d="M1094.024,323.261
			c0,0-22.712,14.944-26.829,18.765c-11.126,10.331-24.939,26.19-24.939,26.19"/>
		<path fill="none" stroke="#001446" stroke-width="1.4229" stroke-miterlimit="10" d="M378.525,467.996
			c0,0,40.918,11.463,50.936,43.76"/>
	</g>
	<path fill="#667290" d="M84.031,425.676c-4.027,8.537,6.996,32.664,25.055,41.184c26.241,12.379,90.903,27.712,137.501,35.225
		c33.892,5.463,105.345-15.766,133.486-34.088c-4.531-4.094-18.521-4.094-29.666-0.828c-22.581,7.764-71.346,21.729-99.803,17.613
		c-49.131-7.107-112.474-21.938-134.103-31.826c-10.961-5.012-26.8-26.525-20.289-41.689
		C92.209,414.381,86.215,421.048,84.031,425.676z"/>
	<path fill="#CBCFD7" d="M250.604,484.781c-51.274-8.088-95.04-17.88-134.103-31.826l-5.48,14.791
		c16.766,8.57,81.801,26.793,134.453,34.248L250.604,484.781z"/>
	<g>
		
			<ellipse transform="matrix(-0.9659 -0.2588 0.2588 -0.9659 1837.9756 1138.6382)" fill="#263762" cx="993.939" cy="448.333" rx="63.008" ry="86.078"/>
		
			<ellipse transform="matrix(-0.9659 -0.2588 0.2588 -0.9659 1837.9797 1138.6329)" fill="#E6E8ED" cx="993.939" cy="448.333" rx="47.041" ry="64.265"/>
		
			<ellipse transform="matrix(-0.9659 -0.2588 0.2588 -0.9659 1837.9741 1138.6399)" fill="#001446" cx="993.939" cy="448.333" rx="38.358" ry="52.402"/>
		<polygon fill="#E6E8ED" points="1035.581,418.729 1028.667,405.818 1001.64,432.293 1001.64,393.827 987.811,397.534 
			987.811,435.999 960.784,424.008 953.869,440.622 980.896,452.614 953.869,479.088 960.784,491.998 987.811,465.523 
			987.811,503.988 1001.64,500.282 1001.64,461.816 1028.667,473.808 1035.581,457.193 1008.555,445.201 		"/>
		
			<ellipse transform="matrix(-0.9659 -0.2588 0.2588 -0.9659 1838.014 1138.5911)" fill="#263762" cx="993.939" cy="448.333" rx="6.019" ry="8.225"/>
	</g>
</g>
</svg>
