<?xml version="1.0" encoding="utf-8"?>
<!-- Generator: Adobe Illustrator 13.0.0, SVG Export Plug-In . SVG Version: 6.00 Build 14948)  -->
<!DOCTYPE svg PUBLIC "-//W3C//DTD SVG 1.1//EN" "http://www.w3.org/Graphics/SVG/1.1/DTD/svg11.dtd">
<svg version="1.1" id="Layer_1" xmlns="http://www.w3.org/2000/svg" xmlns:xlink="http://www.w3.org/1999/xlink" x="0px" y="0px"
	 width="1221px" height="800px" viewBox="0 0 1221 800" enable-background="new 0 0 1221 800" xml:space="preserve">
<g>
	<path fill="#EBEDF0" d="M284.094,269.992l-43.98,34.332c0,0,4.543-24.999,13.506-34.332
		C267.142,255.912,284.094,269.992,284.094,269.992z"/>
	<g opacity="0.5">
		<path d="M975.266,436.715c-40.891-11.035-107.801-11.035-148.691,0L81.217,618.184
			c-109.339,20.494,218.83,132.084,343.093,105.863c23.305-4.916,51.862-11.219,107.782-25.701
			c111.164-28.793,410.603-107.566,479.074-130.283c93.668-31.074,138.596-44.463,151.71-53.398s18.071-22.434-22.817-33.469
			L975.266,436.715z"/>
	</g>
	<g>
		<g>
			
				<ellipse transform="matrix(-0.9659 -0.2588 0.2588 -0.9659 135.2579 1066.0674)" fill="#001446" cx="137.807" cy="524.13" rx="71.51" ry="97.693"/>
			
				<rect x="136.813" y="433.98" transform="matrix(-0.9659 -0.2588 0.2588 -0.9659 188.6634 1088.1824)" fill="#001446" width="58.291" height="195.386"/>
		</g>
		
			<ellipse transform="matrix(-0.9659 -0.2588 0.2588 -0.9659 239.2203 1109.1299)" fill="#263762" cx="192.623" cy="538.817" rx="71.51" ry="97.693"/>
	</g>
	<g>
		
			<ellipse transform="matrix(-0.9659 -0.2588 0.2588 -0.9659 1765.9597 1136.29)" fill="#001446" cx="957.776" cy="451.9" rx="71.51" ry="97.694"/>
		
			<rect x="956.784" y="361.752" transform="matrix(-0.9659 -0.2588 0.2588 -0.9659 1819.3577 1158.403)" fill="#001446" width="58.29" height="195.386"/>
	</g>
	<g>
		
			<ellipse transform="matrix(-0.9659 -0.2588 0.2588 -0.9659 669.7823 1280.6836)" fill="#001446" cx="419.197" cy="596.251" rx="71.51" ry="97.693"/>
		
			<rect x="418.204" y="506.1" transform="matrix(-0.9659 -0.2588 0.2588 -0.9659 723.1691 1302.8016)" fill="#001446" width="58.291" height="195.388"/>
	</g>
	<path fill="#001446" d="M1093.724,440.482l-171.542,75.754c-140.972,31.355-256.847,63.354-365.644,101.59l-35.549-9.383
		l-144.952,49.041c-125.092-1.328-215.867-36.832-287.977-67.039l329.955-106.447l654.373-182.275l29.71,78.114L1093.724,440.482z"
		/>
	<g>
		<defs>
			<path id="SVGID_1_" d="M1129.182,281.001l-9.999-52.185c0,0-4.229-14.112-19.448-19.112
				c-20.863-32.78-117.107-64.8-141.894-70.915c-85.127-21.001-207.136-58.985-282.97-51.139
				c-58.324,6.035-144.869,22.715-235.219,58.504c-72.857,28.86-194.521,155.015-194.521,155.015s-136.209,49.749-189.02,97.427
				c-15.442,13.943-21.852,100.236-7.728,160.044c7.503,31.77,263.68,92.857,314.439,88.65l21.736-4.877
				c-1.402-22.049,1.202-57.695,8.414-82.936c15.343-53.701,65.905-85.943,103.77-79.73c36.07,5.918,72.858,45.43,60.9,123.402
				l35.007-15.582c89.918-30.123,187.391-56.75,294.509-78.914l35.082-5.668c0-24.328,5.162-59.045,13.383-85.418
				c19.232-61.702,71.607-84.708,108.418-74.846c34.699,9.298,55.619,51.364,49.681,97.76c11.977-11.01,6.177-11.342,25.337-33.785
				c6.929-8.114,21.691-63.137,21.66-104.974C1140.711,288.703,1129.182,281.001,1129.182,281.001z"/>
		</defs>
		<use xlink:href="#SVGID_1_"  overflow="visible" fill="#EBEDF0"/>
		<clipPath id="SVGID_2_">
			<use xlink:href="#SVGID_1_"  overflow="visible"/>
		</clipPath>
		<path clip-path="url(#SVGID_2_)" fill="#001446" d="M657.256,225.062c-134.672-17.829-214.62-45.634-242.232-66.703
			c-48.629,25.742-104.285,70.244-169.892,142.811c0,34.678,88.629,72.507,261.76,76.507
			C563.963,310.437,608.729,254.333,657.256,225.062z"/>
		<path clip-path="url(#SVGID_2_)" fill="#263762" d="M255.268,301.169c32.148,37.607,123.72,54.383,262.613,63.553
			c0,0,25.869-35.529-82.957-60.406C318.895,277.792,255.268,301.169,255.268,301.169z"/>
		<polygon clip-path="url(#SVGID_2_)" fill="#263762" points="420.766,218.752 481.349,234.986 504.348,213.975 443.765,197.742 		
			"/>
		<path clip-path="url(#SVGID_2_)" fill="#263762" d="M678.654,193.205l-183.783-49.245c42.083-16.153,84.574-27.943,122.359-35.104
			L801.013,158.1C765.107,166.41,723.229,174.964,678.654,193.205z"/>
		<path opacity="0.2" clip-path="url(#SVGID_2_)" fill="#FFFFFF" d="M58.583,573.273c1.144-54.594,4.08-126.748,5.419-143.512
			c2.023-25.322,168.717-60.945,248.741-78.301c38.863-50.291,132.223-143.979,207.825-177.604
			c77.517-34.476,172.64-87.23,453.617-65.001L818.772,51.756l-402.661,70.873L-23.09,422.938L-8.786,561.35L58.583,573.273z"/>
		<path clip-path="url(#SVGID_2_)" fill="#C5C9D2" d="M258.651,657.914c0,0-149.949-99.281-106.205-97.092
			c164.934,8.252,243.828-74.322,265.57-88.453c95.366-61.979,208.76-69.916,381.052-125.09
			c197.204-63.15,341.653-148.568,341.653-148.568l36.134,286.68l-696.32,231.504L258.651,657.914z"/>
	</g>
	<path fill="#001446" d="M540.443,396.012c152.398-34.397,306.428-88.437,441.959-140.278
		c29.306-11.209,55.969-24.748,63.357-43.131c5.73-14.258-78.393-48.488-152.613-39.857c-83.78,9.742-182.377,34.859-226.937,68.637
		C578.885,307.576,540.443,396.012,540.443,396.012z"/>
	<polygon fill="#263762" points="764.228,205.205 776,321.101 803.638,312.046 789.172,198.521 	"/>
	<polygon fill="#263762" points="954.102,259.422 972.901,251.773 951.908,181.156 932.501,179.306 	"/>
	<path fill="#001446" d="M277.503,637.348c9.116-0.982-11.137-34.242-15.573-39.084c-10.518-11.477-72.484-27.428-128.318-42.516
		c-50.065-13.531-67.881-16.492-72.999-11.902c-3.34,2.996-14.054,20.637-8.081,25.258c13.883,10.74,45.861,24.648,92.14,37.996
		C194.756,621.543,266.928,638.486,277.503,637.348z"/>
	<path fill="#667290" d="M1126.063,235.654c-1.915-16.644-12.622-42.449-81.782-65.059c0,0,39.56,17.842,55.453,39.109
		c16.727,22.382,9.693,51.708,4.664,71.72l-2.712,11.134l27.495-11.557C1129.182,281.001,1127.979,252.297,1126.063,235.654z"/>
	<g>
		<polygon fill="#001446" points="104.171,557.117 184.448,578.629 184.448,544.842 104.171,523.332 		"/>
		<polygon fill="#FFFFFF" points="99.123,558.24 179.399,579.75 179.399,545.963 99.123,524.453 		"/>
	</g>
	<g>
		<polygon fill="#667290" points="747.391,375.057 789.403,361.378 787.486,371.256 744.746,385.476 		"/>
	</g>
	<g>
		<polygon fill="#667290" points="925.876,310.528 966.871,294.049 965.625,304.034 923.939,321.101 		"/>
	</g>
	<path fill="none" stroke="#001446" stroke-width="1.4229" stroke-miterlimit="10" d="M653.577,226.231
		c79.92-43.169,235.776-84.554,346.758-73.869"/>
	<path opacity="0.2" fill="#FFFFFF" d="M553.938,389.46c196.594-124.654,364.832-165.161,461.529-193.394
		c-37.072-11.312-83.078-23.007-135.854-14.615c-53.703,8.54-145.494,22.134-208.894,65.583
		C602.712,293.641,553.938,389.46,553.938,389.46z"/>
	<g>
		<path fill="#BEC3CD" d="M572.444,403.709c0,0,0.906-3.499,12.175,7.289c12.284,11.758,46.625,16.766,57.33,11.26
			c15.003-7.715,13.355-19.486,7.675-30.091c-10.56-19.713-20.964-25.934-27.53-25.726
			C615.529,366.649,572.444,403.709,572.444,403.709z"/>
		<g>
			<defs>
				<path id="SVGID_3_" d="M556.538,390.671c0,0,27.611-36.879,40.993-36.772c10.415,0.083,34.768,2.08,40.842,19.538
					c6.073,17.459-10.693,26.221-32.168,31.083c-21.476,4.863-36.35,0.164-41.683-3.541
					C559.19,397.274,556.538,390.671,556.538,390.671z"/>
			</defs>
			<use xlink:href="#SVGID_3_"  overflow="visible" fill="#EBEDF0"/>
			<clipPath id="SVGID_4_">
				<use xlink:href="#SVGID_3_"  overflow="visible"/>
			</clipPath>
			<path clip-path="url(#SVGID_4_)" fill="#C5C9D2" d="M630.469,362.698c0,0,1.86,17.552-27,26.763
				c-12.313,3.929-51.845,1.824-51.845,1.824l10.254,22.334l80.114,4.463l9.271-42.833l-15.275-25.239L630.469,362.698z"/>
		</g>
	</g>
	<g>
		<path fill="none" stroke="#001446" stroke-width="1.4229" stroke-miterlimit="10" d="M776.165,197.401
			c5.173,40.245,14.065,127.197,14.065,127.197s13.154,22.25,10.686,45.638c-4,37.897-9.121,105.821-5.638,131.743"/>
		<path fill="none" stroke="#001446" stroke-width="1.4229" stroke-miterlimit="10" d="M540.443,396.012
			c17.568,18.685,14.064,103.48,25.383,167.753l306.272-82.473c12.936-3.465,24.972-14.848,31.903-30.166l65.412-128.011
			c7.302-16.137,6.488-44.655-4.301-61.354l-24.604-87.906"/>
		<path fill="none" stroke="#001446" stroke-width="1.4229" stroke-miterlimit="10" d="M1129.182,281.001
			c0,0-52.211,22.231-57.506,24.548c-5.295,2.317-8.283,8.367-10.526,16.613c-2.244,8.246-5.812,25.116-5.812,25.116"/>
		<path fill="none" stroke="#001446" stroke-width="1.4229" stroke-miterlimit="10" d="M343.517,485.391
			c0,0,28.928,0.574,47.353,5.826c9.518,2.713,16.53,21.473,17.688,34.842"/>
		<path fill="none" stroke="#001446" stroke-width="1.4229" stroke-miterlimit="10" d="M506.892,377.676
			c0,0-12.331,18.655-21.29,24.343c-49.834,31.643-138.902,63.008-138.902,63.008"/>
	</g>
	<path fill="#CBCFD7" d="M73.148,477.197c28.046,20.693,86.172,42.104,166.932,44.383l5.266-33.525
		c-70.379,0.805-152.284-27.666-172.197-47.504L73.148,477.197z"/>
	<g>
		
			<ellipse transform="matrix(-0.9659 -0.2588 0.2588 -0.9659 773.7562 1323.7435)" fill="#263762" cx="474.013" cy="610.939" rx="71.51" ry="97.692"/>
		
			<ellipse transform="matrix(-0.9659 -0.2588 0.2588 -0.9659 773.7579 1323.741)" fill="#E6E8ED" cx="474.013" cy="610.938" rx="53.388" ry="72.937"/>
		
			<ellipse transform="matrix(-0.9659 -0.2588 0.2588 -0.9659 773.7522 1323.7434)" fill="#001446" cx="474.013" cy="610.938" rx="47.553" ry="64.967"/>
		<polygon fill="#E6E8ED" points="524.533,575.811 514.391,556.875 484.078,586.57 484.078,543.426 463.794,548.861 
			463.794,592.004 433.48,578.555 423.339,602.924 453.652,616.373 423.339,646.068 433.48,665.002 463.794,635.309 
			463.794,678.451 484.078,673.016 484.078,629.873 514.391,643.322 524.533,618.953 494.22,605.504 		"/>
		
			<ellipse transform="matrix(-0.9659 -0.2587 0.2587 -0.9659 773.8164 1323.7163)" fill="#001446" cx="474.013" cy="610.938" rx="13.924" ry="19.022"/>
	</g>
	<g>
		
			<ellipse transform="matrix(-0.9659 -0.2588 0.2588 -0.9659 1869.9229 1179.3557)" fill="#263762" cx="1012.593" cy="466.59" rx="71.51" ry="97.692"/>
		
			<ellipse transform="matrix(-0.9659 -0.2588 0.2588 -0.9659 1869.9269 1179.3506)" fill="#E6E8ED" cx="1012.593" cy="466.589" rx="53.388" ry="72.938"/>
		
			<ellipse transform="matrix(-0.9659 -0.2588 0.2588 -0.9659 1869.9202 1179.3574)" fill="#001446" cx="1012.593" cy="466.589" rx="47.553" ry="64.965"/>
		<polygon fill="#E6E8ED" points="1063.112,431.459 1052.971,412.525 1022.657,442.219 1022.657,399.077 1002.373,404.512 
			1002.373,447.654 972.061,434.205 961.918,458.574 992.232,472.023 961.918,501.719 972.061,520.652 1002.373,490.957 
			1002.373,534.102 1022.657,528.666 1022.657,485.523 1052.971,498.973 1063.112,474.604 1032.8,461.154 		"/>
		
			<ellipse transform="matrix(-0.9659 -0.2587 0.2587 -0.9659 1869.9854 1179.2803)" fill="#001446" cx="1012.593" cy="466.589" rx="13.924" ry="19.022"/>
	</g>
	<path fill="#001446" d="M226.317,312.457"/>
	
		<ellipse transform="matrix(0.9659 -0.2589 0.2589 0.9659 -121.7529 54.5261)" fill="#667290" cx="146.142" cy="489.521" rx="9.547" ry="13.043"/>
	<path fill="#667290" d="M245.346,488.055c35.075-0.73,68.521-10.23,101.354-23.027c0,0,7.973,16.52-4.044,23.832
		c-33.946,20.656-71.559,32.721-102.575,32.721L245.346,488.055z"/>
	<path fill="#667290" d="M73.149,440.551l0,36.646c0,0-24.088-24.48-24.063-46.959s7.026-31.642,7.026-31.642
		C55.418,413.244,59.186,427.428,73.149,440.551z"/>
</g>
</svg>
