<?xml version="1.0" encoding="utf-8"?>
<!-- Generator: Adobe Illustrator 13.0.0, SVG Export Plug-In . SVG Version: 6.00 Build 14948)  -->
<!DOCTYPE svg PUBLIC "-//W3C//DTD SVG 1.1//EN" "http://www.w3.org/Graphics/SVG/1.1/DTD/svg11.dtd">
<svg version="1.1" id="Layer_1" xmlns="http://www.w3.org/2000/svg" xmlns:xlink="http://www.w3.org/1999/xlink" x="0px" y="0px"
	 width="1221px" height="800px" viewBox="0 0 1221 800" enable-background="new 0 0 1221 800" xml:space="preserve">
<g>
	<path opacity="0.5" d="M992.642,428.939c-42.403-11.443-111.79-11.443-154.192,0L65.519,617.121
		C-47.865,638.373,292.444,754.09,421.304,726.9c24.167-5.098,53.781-11.635,111.769-26.652
		c115.277-29.857,425.792-111.545,496.797-135.102c97.132-32.225,143.722-46.109,157.321-55.375s18.74-23.264-23.662-34.707
		L992.642,428.939z"/>
	<g>
		<g>
			
				<ellipse transform="matrix(-0.9659 -0.2588 0.2588 -0.9659 108.6825 1057.1716)" fill="#001446" cx="123.931" cy="521.432" rx="72.362" ry="98.857"/>
			
				<rect x="122.926" y="430.208" transform="matrix(-0.9659 -0.2588 0.2588 -0.9659 162.7199 1079.55)" fill="#001446" width="58.985" height="197.713"/>
		</g>
		
			<ellipse transform="matrix(-0.9659 -0.2588 0.2588 -0.9659 213.884 1100.748)" fill="#263762" cx="179.4" cy="536.295" rx="72.362" ry="98.857"/>
	</g>
	<g>
		
			<ellipse transform="matrix(-0.9659 -0.2588 0.2588 -0.9659 1703.6509 1128.8672)" fill="#001446" cx="926.134" cy="452.289" rx="72.362" ry="98.857"/>
		
			<rect x="925.13" y="361.066" transform="matrix(-0.9659 -0.2588 0.2588 -0.9659 1757.6873 1151.2383)" fill="#001446" width="58.984" height="197.713"/>
	</g>
	<g>
		
			<ellipse transform="matrix(-0.9659 -0.2588 0.2588 -0.9659 620.8861 1271.8972)" fill="#001446" cx="394.167" cy="595.078" rx="72.362" ry="98.857"/>
		
			<rect x="393.162" y="503.855" transform="matrix(-0.9659 -0.2588 0.2588 -0.9659 674.9012 1294.2827)" fill="#001446" width="58.985" height="197.713"/>
	</g>
	<polygon fill="#001446" points="1070.282,438.709 959.543,418.463 573.929,535.979 539.996,599.617 389.43,588.963 
		401.876,481.754 1049.178,301.449 1078.566,378.719 	"/>
	<path fill="#EBEDF0" d="M267.726,271.417l-43.921,34.286c0,0,4.537-24.966,13.488-34.286
		C250.796,257.356,267.726,271.417,267.726,271.417z"/>
	<g>
		<defs>
			<path id="SVGID_1_" d="M1134.994,271.627c0,0-7.024-73.239-24.431-75.911c-13.007-26.013-40.878-68.062-56.769-73.056
				c-66.933-21.033-238.484-69.487-272.493-62.282c-152.266,32.26-266.805,60.3-358.022,87.184
				c-75.608,22.283-192.418,153.34-192.418,153.34S88.479,353.962,36.24,401.125c-15.275,13.791-13.971,95.303,0,154.465
				c7.422,31.428,260.83,91.854,311.041,87.691l21.502-4.822c-1.388-21.813,1.188-57.072,8.322-82.041
				c15.178-53.119,65.194-85.014,102.649-78.869c35.681,5.854,72.071,44.939,60.242,122.068l34.628-15.412
				c88.947-29.797,185.366-56.137,291.327-78.061l34.703-5.607c0-24.066,1.381-57.934,9.512-84.021
				c19.023-61.036,74.56-84.267,110.972-74.51c34.324,9.197,55.019,50.809,49.145,96.704c11.847-10.891,48.436-20.248,67.389-42.448
				c6.853-8.026,16.647-56.108,16.647-101.066C1154.318,282.315,1134.994,271.627,1134.994,271.627z"/>
		</defs>
		<use xlink:href="#SVGID_1_"  overflow="visible" fill="#EBEDF0"/>
		<clipPath id="SVGID_2_">
			<use xlink:href="#SVGID_1_"  overflow="visible"/>
		</clipPath>
		<path clip-path="url(#SVGID_2_)" fill="#001446" d="M638.531,225.616c-133.217-17.636-217.021-45.111-244.334-65.953
			c-48.104,25.464-98.438,69.457-163.336,141.239c0,34.303,87.671,71.723,258.931,75.68
			C546.246,310.069,605.168,239.554,638.531,225.616z"/>
		<path clip-path="url(#SVGID_2_)" fill="#263762" d="M240.888,300.902c31.8,37.2,122.383,53.795,259.775,62.865
			c0,0,25.589-35.146-82.06-59.754C303.826,277.776,240.888,300.902,240.888,300.902z"/>
		<polygon clip-path="url(#SVGID_2_)" fill="#263762" points="404.597,219.375 464.525,235.433 487.275,214.649 427.347,198.591 		
			"/>
		<polygon clip-path="url(#SVGID_2_)" fill="#263762" points="659.697,194.103 477.902,145.39 702.439,91.136 884.236,139.848 		"/>
		<path opacity="0.2" clip-path="url(#SVGID_2_)" fill="#FFFFFF" d="M46.328,570.064c1.132-54.004,4.265-100.141,5.59-116.723
			c2.001-25.049,1.959-28.326,34.512-36.76c44.134-11.436,142.154-45.737,221.313-62.905
			c40.194-52.229,125.67-168.723,170.159-181.827c58.428-17.21,303.754-76.566,380.444-95.119l-64.878-19.446l-393.475,67.006
			L-34.462,421.354l14.149,136.916L46.328,570.064z"/>
		<path clip-path="url(#SVGID_2_)" fill="#C5C9D2" d="M8.816,503.604c4.462,35.357,132.735,68.492,158.692,69.143
			c51.164,1.283,58.355-44.582,58.355-44.582l105.467-65.176l137.401-62.326l54.249-5.943l464.725-242.627l144.437-38.837
			l77.514,356.627l-887.502,348.99L-9.029,625.098L8.816,503.604z"/>
	</g>
	<path fill="#6A6774" d="M214.6,625.098"/>
	<path fill="none" stroke="#001446" stroke-width="1.4229" stroke-miterlimit="10" d="M634.893,226.773
		c0,0,12.422-6.313,21.996-9.761c31.508-11.344,363.396-93.512,396.906-94.352"/>
	<path fill="#001230" d="M212.25,312.066"/>
	<path fill="#001446" d="M522.981,394.719c150.751-34.026,363.652-101.253,500.494-157.911
		c28.677-11.873,22.334-55.359,21.547-71.609c-0.734-15.182-3.971-27.409-21.547-24.131
		c-63.271,11.805-352.061,81.611-376.086,100.691C581.785,293.858,522.981,394.719,522.981,394.719z"/>
	<polygon fill="#263762" points="932.17,259.605 950.766,252.039 926.187,169.104 908.473,173.314 	"/>
	<polygon fill="#263762" points="745.468,214.886 755.992,320.618 783.331,311.661 770.376,207.868 	"/>
	<path opacity="0.2" fill="#FFFFFF" d="M536.33,388.238c194.469-123.307,405.333-187.124,500.987-215.051
		c0-18.488-1.74-27.387-18.851-24.194c-61.596,11.491-342.437,78.245-365.827,96.819C588.773,296.531,536.33,388.238,536.33,388.238
		z"/>
	<g>
		<path fill="#BEC3CD" d="M553.797,395.602c0,0-4.87,0.232,4.633,8.427c10.359,8.932,49.029,7.662,59.174,6.91
			c10.535-0.781,22.741-7.645,17.289-16.22c-9.946-15.646-32.731-28.586-38.336-28.356
			C590.951,366.591,553.797,395.602,553.797,395.602z"/>
		<g>
			<defs>
				<path id="SVGID_3_" d="M538.901,389.436c0,0,27.314-36.48,40.551-36.375c10.302,0.082,34.392,2.057,40.399,19.327
					c6.009,17.27-10.577,25.937-31.82,30.747c-21.242,4.811-35.957,0.162-41.231-3.502
					C541.525,395.967,538.901,389.436,538.901,389.436z"/>
			</defs>
			<use xlink:href="#SVGID_3_"  overflow="visible" fill="#EBEDF0"/>
			<clipPath id="SVGID_4_">
				<use xlink:href="#SVGID_3_"  overflow="visible"/>
			</clipPath>
			<path clip-path="url(#SVGID_4_)" fill="#C5C9D2" d="M607.021,355.363c0,0,2.32,18.604-21.431,25.025
				c-12.343,3.338-51.55,9.654-51.55,9.654l10.143,22.094l79.248,4.414l9.172-42.371l-15.111-24.966L607.021,355.363z"/>
		</g>
	</g>
	<g>
		<polygon fill="#667290" points="720.669,364.83 762.464,352.048 760.393,361.784 717.867,375.086 		"/>
	</g>
	<g>
		<polygon fill="#667290" points="894.943,306.857 935.975,291.796 934.44,301.631 892.711,317.253 		"/>
	</g>
	<path fill="#001446" d="M262.882,633.447c9.017-0.973-11.017-33.873-15.405-38.662c-10.404-11.354-71.701-27.131-126.932-42.057
		c-49.524-13.385-67.147-16.314-72.209-11.773c-3.305,2.963-13.903,20.412-7.994,24.984c13.734,10.623,45.365,24.383,91.145,37.586
		C181.029,617.813,252.421,634.572,262.882,633.447z"/>
	<path fill="#667290" d="M60.737,438.777v45.484c0,0-23.829-33.451-23.803-55.686c0.025-22.236,6.951-31.3,6.951-31.3
		C43.198,411.764,46.924,425.795,60.737,438.777z"/>
	<path fill="#C5C9D2" d="M60.737,484.262c47.414,21.498,103.631,35.074,165.127,43.902l5.209-42.396l-170.336-46.99V484.262z"/>
	<g>
		
			<ellipse transform="matrix(-0.9659 -0.2588 0.2588 -0.9659 738.7318 1317.2788)" fill="#263762" cx="456.077" cy="610.012" rx="72.362" ry="98.857"/>
		
			<ellipse transform="matrix(-0.9659 -0.2588 0.2588 -0.9659 738.7314 1317.2788)" fill="#E6E8ED" cx="456.077" cy="610.012" rx="54.024" ry="73.804"/>
		
			<ellipse transform="matrix(-0.9659 -0.2588 0.2588 -0.9659 738.7327 1317.2769)" fill="#001446" cx="456.077" cy="610.011" rx="44.052" ry="60.182"/>
		<polygon fill="#E6E8ED" points="503.901,576.012 495.959,561.184 464.921,591.59 464.921,547.414 449.039,551.67 449.039,595.846 
			418,582.076 410.059,601.156 441.097,614.928 410.059,645.332 418,660.158 449.039,629.754 449.039,673.93 464.921,669.672 
			464.921,625.496 495.959,639.268 503.901,620.188 472.862,606.414 		"/>
		
			<ellipse transform="matrix(-0.9659 -0.2589 0.2589 -0.9659 738.6638 1317.3042)" fill="#263762" cx="456.077" cy="610.011" rx="6.914" ry="9.446"/>
	</g>
	<g>
		
			<ellipse transform="matrix(-0.9659 -0.2588 0.2588 -0.9659 1821.4971 1174.2452)" fill="#263762" cx="988.044" cy="467.221" rx="72.362" ry="98.857"/>
		
			<ellipse transform="matrix(-0.9659 -0.2588 0.2588 -0.9659 1821.499 1174.2441)" fill="#E6E8ED" cx="988.045" cy="467.221" rx="54.024" ry="73.806"/>
		
			<ellipse transform="matrix(-0.9659 -0.2588 0.2588 -0.9659 1821.4984 1174.2465)" fill="#001446" cx="988.045" cy="467.222" rx="44.052" ry="60.181"/>
		<polygon fill="#E6E8ED" points="1035.868,433.221 1027.928,418.395 996.889,448.799 996.889,404.623 981.006,408.881 
			981.006,453.057 949.967,439.285 942.025,458.365 973.064,472.139 942.025,502.541 949.967,517.369 981.006,486.963 
			981.006,531.139 996.889,526.883 996.889,482.707 1027.928,496.479 1035.868,477.396 1004.83,463.625 		"/>
		
			<ellipse transform="matrix(-0.9659 -0.2588 0.2588 -0.9659 1821.5203 1174.2192)" fill="#263762" cx="988.045" cy="467.221" rx="6.913" ry="9.445"/>
	</g>
	<g>
		<path fill="none" stroke="#001446" stroke-width="1.4229" stroke-miterlimit="10" d="M757.076,206.581
			c5.117,39.811,12.992,117.496,12.992,117.496s13.012,22.01,10.57,45.145c-3.957,37.488-9.021,104.677-5.576,130.32"/>
		<path fill="none" stroke="#001446" stroke-width="1.4229" stroke-miterlimit="10" d="M522.981,394.719
			c17.378,18.482,13.913,102.361,25.109,165.941l302.961-81.582c12.796-3.428,24.702-14.686,31.559-29.84l64.706-126.627
			c7.223-15.963,6.418-44.173-4.255-60.691l-26.975-96.379"/>
		<path fill="none" stroke="#001446" stroke-width="1.4229" stroke-miterlimit="10" d="M1134.994,271.627
			c0,0-81.285,31.315-86.521,33.606c-5.238,2.292-8.193,8.277-10.413,16.434s-5.748,24.846-5.748,24.846"/>
		<path fill="none" stroke="#001446" stroke-width="1.4229" stroke-miterlimit="10" d="M305.898,506.115
			c0,0,54.656-17.518,69.126-17.221c9.788,0.201,16.351,21.24,17.496,34.465"/>
		<path fill="none" stroke="#001446" stroke-width="1.4229" stroke-miterlimit="10" d="M489.792,376.582
			c0,0-14.101,16.221-21.06,24.081c-9.485,10.711-118.896,53.084-137.401,62.326"/>
	</g>
	<path fill="#667290" d="M1110.563,195.716c4.587,29.356,6.126,51.327,3.757,83.886l20.674-7.975
		C1134.994,271.627,1130.199,200.189,1110.563,195.716z"/>
	<path fill="#667290" d="M231.073,485.768l100.258-22.779c0,0-3.195,37.025-16.49,41.133c-29.773,9.197-88.977,24.043-88.977,24.043
		L231.073,485.768z"/>
	
		<ellipse transform="matrix(0.9659 -0.2588 0.2588 0.9659 -121.4088 51.5337)" fill="#263762" cx="135.01" cy="486.852" rx="11.817" ry="16.144"/>
	<g>
		<polygon fill="#001446" points="88.316,564.572 180.032,589.148 180.032,550.545 88.316,525.971 		"/>
		<polygon fill="#F7F6F6" points="82.546,565.854 174.264,590.43 174.264,551.828 82.546,527.252 		"/>
	</g>
</g>
</svg>
