<?xml version="1.0" encoding="utf-8"?>
<!-- Generator: Adobe Illustrator 13.0.0, SVG Export Plug-In . SVG Version: 6.00 Build 14948)  -->
<!DOCTYPE svg PUBLIC "-//W3C//DTD SVG 1.1//EN" "http://www.w3.org/Graphics/SVG/1.1/DTD/svg11.dtd">
<svg version="1.1" id="Layer_1" xmlns="http://www.w3.org/2000/svg" xmlns:xlink="http://www.w3.org/1999/xlink" x="0px" y="0px"
	 width="1221px" height="800px" viewBox="0 0 1221 800" enable-background="new 0 0 1221 800" xml:space="preserve">
<g>
	<path opacity="0.5" d="M930.205,438.871c-34.293-9.256-90.409-9.256-124.703,0l-625.11,152.193
		c-91.7,17.188,183.526,110.773,287.742,88.784c19.546-4.124,43.496-9.409,90.394-21.557
		c93.23-24.146,344.361-90.212,401.787-109.264c78.556-26.062,116.235-37.29,127.234-44.784
		c10.998-7.494,15.155-18.814-19.137-28.069L930.205,438.871z"/>
	<g>
		<path fill="#001446" d="M869.537,421.199c-11.908,44.766,4.809,88.175,37.339,96.954c32.53,8.78,68.556-20.392,80.464-65.158
			c11.907-44.767-4.811-88.174-37.341-96.954C917.469,347.262,881.445,376.434,869.537,421.199z"/>
		<polygon fill="#001446" points="906.876,518.153 954.891,531.113 998.012,369 949.999,356.041 		"/>
	</g>
	<g>
		<path fill="#001446" d="M384.306,551.453c-11.908,44.768,4.809,88.174,37.339,96.955s68.556-20.393,80.464-65.158
			c11.906-44.767-4.811-88.174-37.341-96.954C432.238,477.516,396.214,506.688,384.306,551.453z"/>
		<polygon fill="#001446" points="421.645,648.408 469.659,661.367 512.781,499.254 464.769,486.296 		"/>
	</g>
	<polygon fill="#001446" points="1040.953,445.561 960.27,443.577 610.924,526.703 555.667,597.008 435.749,577.377 447.566,474.84 
		1005.657,319.855 1054.582,398.041 	"/>
	<path fill="#EBEDF0" d="M300.417,293.185l-40.505,36.84c0,0,2.651-25.71,10.626-34.075
		C282.568,283.332,300.417,293.185,300.417,293.185z"/>
	<g>
		<defs>
			<path id="SVGID_1_" d="M1033.571,258.123c-25.579-37.786-65.414-78.323-65.414-78.323
				c-52.049-16.91-156.484-49.111-237.948-55.476c-81.732-6.385-154.559,14.502-230.51,35.758
				c-125.488,35.119-239.787,169.943-239.787,169.943s-64.267,32.626-106.297,66.632c-45.03,36.434-46.233,130.618-24.447,165.509
				c24.766,39.661,202.378,68.218,248.488,67.851c25.615-0.789,30.306-2.818,30.306-2.818l9.153-2.424
				c-1.317-20.86-0.444-41.468,4.002-63.957c10.248-51.818,53.317-86.535,88.881-80.658c33.876,5.6,56.899,46.537,45.667,120.305
				l51.192-24.184c84.453-28.497,155.385-52.097,255.99-73.064l37.463-5.169c0-23.015,1.597-43.289,7.844-68.655
				c12.604-51.171,55.114-82.608,89.688-73.276c32.59,8.795,48.688,45.551,43.111,89.444c14.609-7.566,9.559-3.204,14.102-16.598
				c8.162-24.063,13.412-55.666,12.208-67.975c-0.591-6.034,0.021-17.812-8.113-21.598
				C1048.727,300.363,1045.09,275.139,1033.571,258.123z"/>
		</defs>
		<use xlink:href="#SVGID_1_"  overflow="visible" fill="#EBEDF0"/>
		<clipPath id="SVGID_2_">
			<use xlink:href="#SVGID_1_"  overflow="visible"/>
		</clipPath>
		<path clip-path="url(#SVGID_2_)" fill="#001446" d="M664.566,240.993c-113.358-11.193-188.104-32.086-222.938-59.531
			c-72.729,40.043-128.102,88.514-181.717,148.563c0,30.119,109.646,65.749,260.017,69.223
			C574.272,313.743,619.266,270.764,664.566,240.993z"/>
		<path clip-path="url(#SVGID_2_)" fill="#263762" d="M275.024,328.915c29.815,34.879,114.746,50.438,243.565,58.943
			c0,0,23.992-32.952-76.94-56.025C334.036,307.233,275.024,328.915,275.024,328.915z"/>
		<polygon clip-path="url(#SVGID_2_)" fill="#263762" points="448.573,239.482 501.192,253.581 521.167,235.333 468.549,221.233 		
			"/>
		<path opacity="0.2" clip-path="url(#SVGID_2_)" fill="#FFFFFF" d="M91.939,520.854
			c-3.951-120.205,138.449-151.508,231.483-153.378c62.945-67.669,251.942-255.504,475.316-233.347l82.689-22.446l-127.87-14.431
			L489.95,134.717L47.684,448.412L91.939,520.854z"/>
		<path clip-path="url(#SVGID_2_)" fill="#C5C9D2" d="M82.173,550.307c0,0,15.807-64.698,13.335-45.291
			C86.544,575.4,303.656,608.912,347.409,611.937c24.92,1.724,31.414-39.29,38.619-68.481c5.319-21.549,3.561-50.344,66.627-88.535
			c13.226-8.009,33.066-17.295,90.81-32.563c325.41-86.041,467.212-159.249,479.934-167.773c12.722-8.525,52.998-43.42,52.998-43.42
			l90.606,274.907L334.467,688.384L87.306,597.008L82.173,550.307z"/>
	</g>
	<path fill="#6A6774" d="M269.752,611.937"/>
	<path fill="#667290" d="M1041.483,349.846l17.666-10.457c-3.461-35.243-14.82-57.258-14.82-57.258
		S1034.149,315.883,1041.483,349.846z"/>
	<g>
		<polygon fill="#667290" points="776.59,367.042 815.904,353.665 814.205,363.029 774.211,376.925 		"/>
	</g>
	<g>
		<path fill="#001446" d="M541.215,405.492c144.141-43.692,266.963-73.982,396.892-128.17c3.402-1.42,18.736-8.529,21.112-10.081
			c8.148-5.319-33.354-67.24-46.398-68.542c-28.966-2.89-92.554-6.398-146.415,11.251
			C610.595,261.007,541.215,405.492,541.215,405.492z"/>
		<polygon fill="#263762" points="798.739,214.094 808.836,320.312 834.794,311.747 822.314,209.796 		"/>
		<path opacity="0.2" fill="#FFFFFF" d="M559.082,394.227c216.006-160.238,382.136-145.691,382.136-145.691
			c-9.4-15.006-25.074-37.498-35.802-39.188c-10.727-1.69-81.55-6.235-127.317,8.84
			C634.365,265.532,559.082,394.227,559.082,394.227z"/>
	</g>
	<g>
		<path fill="#BEC3CD" d="M561.465,407.488c0,0,0.832-2.079,9.628,3.928c9.588,6.547,44.343,13.758,53.149,10.218
			c12.34-4.959,13.279-18.013,8.704-22.897c-14.171-15.129-24.995-14.857-30.306-14.545
			C597.33,384.501,561.465,407.488,561.465,407.488z"/>
		<g>
			<defs>
				<path id="SVGID_3_" d="M547.515,403.158c0,0,26.733-28.433,39.259-28.675c9.748-0.189,32.5,0.729,37.769,13.727
					c5.27,13-10.638,20-30.858,24.179c-20.222,4.178-34.035,0.999-38.939-1.663C549.841,408.064,547.515,403.158,547.515,403.158z"
					/>
			</defs>
			<use xlink:href="#SVGID_3_"  overflow="visible" fill="#EBEDF0"/>
			<clipPath id="SVGID_4_">
				<use xlink:href="#SVGID_3_"  overflow="visible"/>
			</clipPath>
			<path clip-path="url(#SVGID_4_)" fill="#C5C9D2" d="M612.811,375.563c0,0,1.747,14.106-20.887,19.572
				c-11.762,2.839-49.023,8.602-49.023,8.602l9.066,16.57l74.899,1.432l9.703-32.474l-13.697-18.635L612.811,375.563z"/>
		</g>
	</g>
	<g>
		<path fill="none" stroke="#001446" stroke-width="1.4229" stroke-miterlimit="10" d="M541.215,405.492
			c16.5,17.677,34.852,147.598,45.176,144.814c10.325-2.785,194.133-55.785,217.888-64.011s24.322-89.229,24.902-131.815
			c0.304-22.247-6.313-32.341-6.313-32.341s-8.17-79.925-13.028-117.999"/>
		<path fill="none" stroke="#001446" stroke-width="1.4229" stroke-miterlimit="10" d="M520.132,398.041
			c0,0-9.422,12.459-20.163,18.365c-11.924,6.554-119.503,56.557-119.503,56.557"/>
		
			<line fill="none" stroke="#001446" stroke-width="1.4229" stroke-miterlimit="10" x1="1059.149" y1="339.39" x2="1015.387" y2="365.283"/>
		<path fill="none" stroke="#001446" stroke-width="1.4229" stroke-miterlimit="10" d="M380.466,472.962
			c0,0,59.491,0.614,69.172,32.054"/>
		<path fill="none" stroke="#001446" stroke-width="1.4229" stroke-miterlimit="10" d="M661.843,241.549
			c49.73-30.963,134.822-71.198,304.24-61.809"/>
	</g>
	<path fill="#CBCFD7" d="M297.355,581.217c6.273-0.676-8.593-22.91-10.717-26.898c-18.046-33.887-56.299-38.814-94.724-49.197
		c-34.454-9.313-40.606,3.814-45.132,10.426c-1.744,2.548-8.363,15.522-4.252,18.703c9.555,7.392,31.561,16.964,63.411,26.149
		C240.409,570.34,290.078,582,297.355,581.217z"/>
	<path fill="#CBCFD7" d="M330.526,469.873c-70.421-14.599-123.072-28.092-169.227-44.691l-3.746,31.705
		c19.81,10.201,91.384,32.217,153.596,41.09L330.526,469.873z"/>
	
		<ellipse transform="matrix(0.9027 0.4302 -0.4302 0.9027 220.7376 -53.1147)" fill="#667290" cx="227.826" cy="461.579" rx="7.439" ry="9.116"/>
	<path fill="#667290" d="M300.417,497.452c0,0,45.709,12.724,72.853-11.156s1.568-34.874-33.691-29.278
		C305.321,462.454,279.263,494.26,300.417,497.452z"/>
	<path fill="#667290" d="M156.612,456.417c0,0-31.835-4.749-29.178-20.489c2.076-12.292,12.37-26.699,19.061-32.665
		c6.093-5.433,10.757,2.856,16.77,10.294C175.722,428.964,175.761,459.284,156.612,456.417z"/>
	<g>
		<polygon fill="#001446" points="180.503,545.809 248.304,563.977 248.304,535.439 180.503,517.271 		"/>
		<polygon fill="#FFFFFF" points="176.237,546.757 244.04,564.924 244.04,536.389 176.237,518.221 		"/>
	</g>
	<g>
		
			<ellipse transform="matrix(-0.9659 -0.2588 0.2588 -0.9659 1800.1213 1136.1555)" fill="#263762" cx="974.849" cy="449.584" rx="61.337" ry="83.794"/>
		
			<ellipse transform="matrix(-0.9659 -0.2588 0.2588 -0.9659 1800.1235 1136.1517)" fill="#E6E8ED" cx="974.849" cy="449.583" rx="43.545" ry="59.49"/>
		
			<ellipse transform="matrix(-0.9659 -0.2588 0.2588 -0.9659 1800.1339 1136.1394)" fill="#263762" cx="974.849" cy="449.583" rx="10.017" ry="13.684"/>
		<g>
			<path fill="#0D204F" d="M979.209,410.383l-8.455,2.266c-3.252,0.871-5.914-1.268-5.914-4.754v-1.37
				c0-3.486,2.662-7.052,5.914-7.923l8.455-2.266c3.252-0.872,5.914,1.268,5.914,4.754v1.369
				C985.123,405.945,982.461,409.512,979.209,410.383z"/>
			<path fill="#0D204F" d="M979.209,500.156l-8.455,2.266c-3.252,0.871-5.914-1.268-5.914-4.754v-1.371
				c0-3.486,2.662-7.051,5.914-7.923l8.455-2.266c3.252-0.872,5.914,1.268,5.914,4.754v1.37
				C985.123,495.719,982.461,499.285,979.209,500.156z"/>
			<path fill="#0D204F" d="M944.263,451.217v12.785c0,3.359-2.564,6.795-5.698,7.635l0,0c-3.135,0.84-5.699-1.222-5.699-4.581
				v-12.784c0-3.359,2.564-6.795,5.699-7.635l0,0C941.698,445.797,944.263,447.857,944.263,451.217z"/>
			<path fill="#0D204F" d="M1017.097,431.701v12.784c0,3.358-2.563,6.794-5.698,7.634l0,0c-3.135,0.84-5.698-1.221-5.698-4.58
				v-12.785c0-3.359,2.563-6.795,5.698-7.635l0,0C1014.533,426.279,1017.097,428.342,1017.097,431.701z"/>
			<path fill="#0D204F" d="M949.988,478.816l6.543,6.311c2.145,2.069,2.145,6.395,0,9.613l-0.26,0.39
				c-2.145,3.218-5.654,4.159-7.799,2.09l-6.543-6.312c-2.145-2.068-2.145-6.395,0-9.613l0.26-0.39
				C944.334,477.688,947.844,476.746,949.988,478.816z"/>
			<path fill="#0D204F" d="M1001.49,401.537l6.543,6.311c2.145,2.069,2.145,6.395,0,9.613l-0.26,0.39
				c-2.145,3.219-5.654,4.159-7.8,2.09l-6.543-6.312c-2.145-2.068-2.145-6.395,0-9.613l0.26-0.389
				C995.836,400.408,999.345,399.468,1001.49,401.537z"/>
			<path fill="#0D204F" d="M993.432,475.24l6.543-9.818c2.145-3.219,5.654-4.158,7.799-2.09l0.26,0.25
				c2.145,2.069,2.145,6.395,0,9.613l-6.543,9.818c-2.145,3.219-5.654,4.158-7.799,2.09l-0.26-0.25
				C991.287,482.784,991.286,478.458,993.432,475.24z"/>
			<path fill="#0D204F" d="M941.929,425.562l6.543-9.817c2.146-3.219,5.655-4.16,7.8-2.09l0.26,0.25
				c2.145,2.068,2.145,6.395,0,9.613l-6.543,9.817c-2.145,3.218-5.654,4.159-7.8,2.09l-0.26-0.251
				C939.784,433.105,939.784,428.779,941.929,425.562z"/>
		</g>
	</g>
	<g>
		
			<ellipse transform="matrix(-0.9659 -0.2588 0.2588 -0.9659 813.8173 1267.312)" fill="#263762" cx="490.33" cy="580.086" rx="61.337" ry="83.795"/>
		
			<ellipse transform="matrix(-0.9659 -0.2588 0.2588 -0.9659 813.8268 1267.3079)" fill="#E6E8ED" cx="490.331" cy="580.086" rx="43.545" ry="59.489"/>
		
			<ellipse transform="matrix(-0.9659 -0.2588 0.2588 -0.9659 813.8621 1267.2913)" fill="#263762" cx="490.331" cy="580.086" rx="10.016" ry="13.684"/>
		<g>
			<path fill="#0D204F" d="M494.69,540.887l-8.455,2.265c-3.253,0.872-5.914-1.268-5.914-4.754v-1.37
				c0-3.486,2.661-7.052,5.914-7.924l8.455-2.266c3.252-0.871,5.914,1.268,5.914,4.754v1.371
				C500.604,536.449,497.943,540.015,494.69,540.887z"/>
			<path fill="#0D204F" d="M494.69,630.659l-8.455,2.265c-3.253,0.872-5.914-1.268-5.914-4.754v-1.369
				c0-3.486,2.661-7.053,5.914-7.924l8.455-2.266c3.252-0.871,5.914,1.268,5.914,4.754v1.371
				C500.604,626.223,497.943,629.787,494.69,630.659z"/>
			<path fill="#0D204F" d="M459.744,581.721v12.784c0,3.358-2.564,6.795-5.698,7.634l0,0c-3.134,0.84-5.699-1.221-5.699-4.58
				v-12.785c0-3.359,2.564-6.795,5.699-7.635l0,0C457.18,576.299,459.744,578.361,459.744,581.721z"/>
			<path fill="#0D204F" d="M532.578,562.203v12.785c0,3.359-2.564,6.795-5.698,7.635l0,0c-3.134,0.84-5.698-1.222-5.698-4.581
				v-12.784c0-3.359,2.564-6.795,5.698-7.635l0,0C530.014,556.783,532.578,558.844,532.578,562.203z"/>
			<path fill="#0D204F" d="M465.47,609.318l6.543,6.312c2.145,2.069,2.145,6.396,0,9.613l-0.259,0.39
				c-2.145,3.219-5.655,4.158-7.799,2.09l-6.543-6.312c-2.145-2.069-2.145-6.395,0-9.613l0.26-0.39
				C459.815,608.189,463.325,607.25,465.47,609.318z"/>
			<path fill="#0D204F" d="M516.971,532.039l6.543,6.313c2.145,2.068,2.145,6.395,0,9.613l-0.26,0.389
				c-2.145,3.219-5.654,4.159-7.799,2.09l-6.543-6.311c-2.145-2.07-2.145-6.396,0-9.613l0.26-0.391
				C511.316,530.911,514.826,529.971,516.971,532.039z"/>
			<path fill="#0D204F" d="M508.913,605.742l6.543-9.817c2.145-3.218,5.654-4.159,7.799-2.09l0.26,0.251
				c2.145,2.068,2.145,6.395,0,9.613l-6.543,9.817c-2.145,3.218-5.654,4.159-7.799,2.09l-0.26-0.251
				C506.768,613.287,506.768,608.961,508.913,605.742z"/>
			<path fill="#0D204F" d="M457.41,556.064l6.543-9.818c2.145-3.218,5.654-4.158,7.799-2.09l0.26,0.251
				c2.145,2.069,2.145,6.395,0,9.612l-6.542,9.818c-2.145,3.219-5.655,4.158-7.8,2.09l-0.26-0.25
				C455.266,563.608,455.266,559.283,457.41,556.064z"/>
		</g>
	</g>
</g>
</svg>
