<?xml version="1.0" encoding="utf-8"?>
<!-- Generator: Adobe Illustrator 13.0.0, SVG Export Plug-In . SVG Version: 6.00 Build 14948)  -->
<!DOCTYPE svg PUBLIC "-//W3C//DTD SVG 1.1//EN" "http://www.w3.org/Graphics/SVG/1.1/DTD/svg11.dtd">
<svg version="1.1" xmlns="http://www.w3.org/2000/svg" xmlns:xlink="http://www.w3.org/1999/xlink" x="0px" y="0px" width="1221px"
	 height="800px" viewBox="0 0 1221 800" enable-background="new 0 0 1221 800" xml:space="preserve">
<g id="Layer_2" display="none">
	<rect x="9" y="10.5" display="inline" stroke="#000000" stroke-miterlimit="10" width="1213" height="789"/>
</g>
<g id="Layer_1">
	<g>
		<path opacity="0.5" d="M1013.97,491.23c-43.345-11.699-114.272-11.699-157.617,0L66.254,683.592
			C-49.648,705.316,298.22,823.604,429.941,795.811c24.704-5.213,54.976-11.895,114.252-27.246
			c117.837-30.52,435.25-114.023,507.832-138.104c99.29-32.939,146.914-47.131,160.816-56.604
			c13.9-9.473,19.155-23.779-24.188-35.479L1013.97,491.23z"/>
		<g>
			<defs>
				<path id="SVGID_1_" d="M167.102,312.466l23.894,6.449c2.967,0.8,5.03,3.509,5.03,6.603v60.024c0,3.468-2.438,6.451-5.815,7.118
					l-4.74,0.936c-1.247,0.246-2.533,0.205-3.763-0.12l-21.215-5.613c-4.233-1.12-7.184-4.974-7.184-9.383v-53.812
					c0-3.924,1.723-7.647,4.706-10.172l0,0C160.533,312.367,163.925,311.609,167.102,312.466z"/>
			</defs>
			<use xlink:href="#SVGID_1_"  overflow="visible" fill="#263762"/>
			<clipPath id="SVGID_2_">
				<use xlink:href="#SVGID_1_"  overflow="visible"/>
			</clipPath>
			<polygon opacity="0.1" clip-path="url(#SVGID_2_)" fill="#3B4250" points="193.99,396.851 186.112,396.851 186.112,327.759 
				193.99,323.948 			"/>
		</g>
		<g>
			<defs>
				<path id="SVGID_3_" d="M477.953,393.905l23.894,6.449c2.967,0.801,5.03,3.51,5.03,6.604v60.023c0,3.469-2.438,6.451-5.815,7.119
					l-4.74,0.936c-1.247,0.246-2.533,0.205-3.763-0.121l-21.215-5.613c-4.232-1.119-7.184-4.973-7.184-9.383v-53.811
					c0-3.924,1.723-7.648,4.706-10.172l0,0C471.385,393.805,474.777,393.047,477.953,393.905z"/>
			</defs>
			<use xlink:href="#SVGID_3_"  overflow="visible" fill="#263762"/>
			<clipPath id="SVGID_4_">
				<use xlink:href="#SVGID_3_"  overflow="visible"/>
			</clipPath>
			<polygon clip-path="url(#SVGID_4_)" fill="#001446" points="504.842,478.289 496.964,478.289 496.964,409.197 504.842,405.387 
							"/>
		</g>
		<g>
			<path fill="#001446" d="M942.656,500.266c-11.761,44.211,4.75,87.078,36.877,95.75c32.125,8.67,67.702-20.139,79.463-64.35
				c11.76-44.209-4.75-87.078-36.876-95.75C989.992,427.246,954.416,456.057,942.656,500.266z"/>
			<polygon fill="#001446" points="979.533,596.016 1026.949,608.814 1069.537,448.715 1022.12,435.916 			"/>
		</g>
		<g>
			<path fill="#001446" d="M356.218,658.68c-11.761,44.211,4.75,87.08,36.878,95.752c32.125,8.67,67.701-20.141,79.462-64.35
				c11.761-44.211-4.75-87.078-36.876-95.75S367.979,614.471,356.218,658.68z"/>
			<polygon fill="#001446" points="393.096,754.432 440.511,767.229 483.1,607.129 435.682,594.332 			"/>
		</g>
		<polygon fill="#001446" points="1116.574,522.988 1057.108,515.967 588.898,634.568 529.582,710.037 400.855,688.965 
			413.541,578.896 1147.076,380.036 1150.404,461.344 		"/>
		<path fill="#6A6774" d="M222.668,726.063"/>
		<g>
			<g>
				<defs>
					<path id="SVGID_5_" d="M1189.064,380.04c0,0-18.75-299.805-34.094-304.883C1119.333,62.627,894.245-3.925,875.969,0.963
						c-18.275,4.889-448.947,121.255-543.086,149.422c-44.664,13.365-78.557,65.387-78.557,65.387L144.979,391.856
						c0,0-45.745,41.367-82.105,74.875c-16.78,15.463-17.342,22.725-19.797,41.4c-0.555,4.225-10.669,22.725-11.395,26.998
						c-8.568,50.488-3.021,98.184,9.596,131.691c11.253,29.883,208.045,77.49,266.51,80.803c24.999,1.418,52.102-2.686,73.067-8.521
						c-1.414-22.391-0.478-43.77,4.296-67.912c11-55.625,57.233-92.891,95.408-86.582c36.366,6.01,61.08,46.244,49.023,125.43
						L965.604,579.33c0,0,1.715-46.469,8.421-73.697c13.528-54.93,59.163-88.678,96.274-78.66
						c34.983,9.441,52.263,48.896,46.275,96.016c12.076-11.182,44.458-21.08,63.774-43.871c6.985-8.24,17.455-32.883,17.425-75.371
						C1197.762,390.521,1189.064,380.04,1189.064,380.04z"/>
				</defs>
				<use xlink:href="#SVGID_5_"  overflow="visible" fill="#EBEDF0"/>
				<clipPath id="SVGID_6_">
					<use xlink:href="#SVGID_5_"  overflow="visible"/>
				</clipPath>
				<path clip-path="url(#SVGID_6_)" fill="#001446" d="M502.559,282.172c-101.703-15.842-209.588-46.895-248.232-66.4
					c0,0-78.221,123.985-109.348,176.084c35.84,29.736,183.152,65.943,265.975,71.789L502.559,282.172z"/>
				<path clip-path="url(#SVGID_6_)" fill="#263762" d="M153.309,386.172c31.008,17.314,143.004,53.824,257.66,67.525
					c0,0,18.413-26.951,6.299-35.791c-40.804-29.777-103.635-15.541-150.586-26.351
					C159.059,366.773,153.309,386.172,153.309,386.172z"/>
				<polygon clip-path="url(#SVGID_6_)" fill="#263762" points="300.354,281.071 356.548,296.237 369.446,274.331 313.254,259.165 
									"/>
				<path clip-path="url(#SVGID_6_)" fill="#C5C9D2" d="M1182.465,68.385c0,0-565.063,154.926-589.837,164.633
					c-24.774,9.708-51.733,24.262-75.05,57.616c-23.316,33.355-74.561,137.288-92.781,168.69
					c-15.781,27.201-58.682,61.127-80.613,75.014c-27.037,17.121-23.862,109.768-83.286,109.768
					c-50.688,0-212.67-46.994-256.683-70.602c-15.828-8.488,52.899,148.654,52.899,148.654l243.24,56.346l921.403-262.537
					L1182.465,68.385z"/>
				<path opacity="0.2" clip-path="url(#SVGID_6_)" fill="#FFFFFF" d="M358.005,135.972
					c-50.218,37.292-70.653,57.335-142.814,289.795c-75.557,21.068-101.28,26.334-187.634,59.85l234.268-334.069L358.005,135.972z"
					/>
			</g>
		</g>
		<polygon fill="#263762" points="1109.833,322.085 913.383,378.229 913.383,361.042 1109.833,304.899 		"/>
		<path fill="#667290" d="M1178.497,236.125l7.37,96.599l-17.553,5.304l-2.01-60.173
			C1166.007,268.918,1178.497,236.125,1178.497,236.125z"/>
		<polygon fill="#667290" points="745.146,404.857 705.346,416.232 705.346,433.42 745.146,422.045 		"/>
		<polygon fill="#667290" points="674.044,425.938 634.244,437.314 634.244,454.5 674.044,443.125 		"/>
		<path fill="#001446" d="M699.844,392.165l417.705-119.348c14.01-4.213,19.232-17.008,19.834-24.899l6.866-119.09l-444.405,121.13
			V392.165z"/>
		<polygon opacity="0.2" fill="#FFFFFF" points="708.652,382.062 1137.121,137.685 708.652,258.457 		"/>
		<g>
			
				<ellipse transform="matrix(-0.9659 -0.2588 0.2588 -0.9659 727.4865 1470.6418)" fill="#263762" cx="460.551" cy="687.433" rx="60.222" ry="82.273"/>
			
				<ellipse transform="matrix(-0.9659 -0.2588 0.2588 -0.9659 727.4821 1470.6451)" fill="#E6E8ED" cx="460.551" cy="687.434" rx="46.861" ry="64.019"/>
			
				<ellipse transform="matrix(-0.9659 -0.2588 0.2588 -0.9659 727.4897 1470.6426)" fill="#001446" cx="460.551" cy="687.434" rx="39.777" ry="54.34"/>
			<path fill="#E6E8ED" d="M486.64,684.762l10.986,17.342c3.013,4.754-1.219,13.064-6.44,12.652l-19.048-1.504
				c-2.272-0.182-4.706,1.447-6.168,4.123l-12.259,22.432c-3.361,6.148-10.206,5.242-10.422-1.383l-0.786-24.16
				c-0.093-2.883-1.598-5.031-3.812-5.445l-18.563-3.479c-5.089-0.955-5.089-9.826,0-13.506l18.563-13.428
				c2.214-1.602,3.719-4.557,3.812-7.488l0.786-24.582c0.216-6.74,7.061-11.316,10.422-6.967l12.259,15.863
				c1.462,1.893,3.896,2.215,6.168,0.816l19.048-11.713c5.223-3.211,9.453,2.832,6.44,9.201l-10.986,23.23
				C485.329,679.539,485.329,682.691,486.64,684.762z"/>
			
				<ellipse transform="matrix(-0.9659 -0.2588 0.2588 -0.9659 727.5245 1470.6307)" fill="#263762" cx="460.551" cy="687.434" rx="9.834" ry="13.434"/>
		</g>
		<g>
			
				<ellipse transform="matrix(-0.9659 -0.2588 0.2588 -0.9659 1921.3816 1310.9949)" fill="#263762" cx="1046.99" cy="529.019" rx="60.222" ry="82.271"/>
			
				<ellipse transform="matrix(-0.9659 -0.2588 0.2588 -0.9659 1921.3945 1310.9794)" fill="#E6E8ED" cx="1046.989" cy="529.019" rx="46.861" ry="64.018"/>
			
				<ellipse transform="matrix(-0.9659 -0.2588 0.2588 -0.9659 1921.363 1311.0144)" fill="#001446" cx="1046.989" cy="529.019" rx="39.777" ry="54.341"/>
			<path fill="#E6E8ED" d="M1073.078,526.346l10.986,17.344c3.013,4.754-1.219,13.064-6.441,12.652l-19.047-1.506
				c-2.272-0.18-4.707,1.447-6.168,4.123l-12.259,22.434c-3.361,6.148-10.206,5.24-10.422-1.383l-0.786-24.162
				c-0.094-2.881-1.598-5.029-3.813-5.443l-18.563-3.48c-5.088-0.953-5.088-9.824,0-13.506l18.563-13.426
				c2.215-1.604,3.719-4.559,3.813-7.488l0.786-24.584c0.216-6.738,7.061-11.314,10.422-6.965l12.259,15.863
				c1.461,1.891,3.896,2.215,6.168,0.816l19.047-11.713c5.225-3.213,9.454,2.832,6.441,9.201l-10.986,23.23
				C1071.768,521.125,1071.768,524.277,1073.078,526.346z"/>
			
				<ellipse transform="matrix(-0.9659 -0.2589 0.2589 -0.9659 1921.3337 1311.0471)" fill="#263762" cx="1046.989" cy="529.019" rx="9.834" ry="13.435"/>
		</g>
		<g>
			<path fill="none" stroke="#001446" stroke-width="1.4229" stroke-miterlimit="10" d="M502.559,282.172
				c0,0,30.886-52.585,73.654-65.879s548.321-149.896,548.321-149.896"/>
			<path fill="none" stroke="#001446" stroke-width="1.4229" stroke-miterlimit="10" d="M1185.867,332.723
				c0,0-768.357,232.146-794.705,240.218c-14.27,4.371-46.979-25.32-46.979-25.32"/>
			<path fill="none" stroke="#001446" stroke-width="1.4229" stroke-miterlimit="10" d="M434.133,121.608
				c0,0,230.109,62.108,244.537,66.002c14.428,3.895,18.62,10.777,19.712,26.334c1.091,15.558,1.462,36.014,1.462,36.014"/>
			<path fill="none" stroke="#001446" stroke-width="1.4229" stroke-miterlimit="10" d="M410.953,464.186
				c0,0,0.842,13.984-10.098,25.004c-4.97,5.006-41.075,37.713-59.344,46.537c-27.533,13.301-55.488,13.672-88.31,9.654
				c-35.849-4.387-216.005-45.719-199.743-67.838"/>
			<path fill="none" stroke="#001446" stroke-width="1.4229" stroke-miterlimit="10" d="M682.012,254.818V642.91l-129.435,37.869
				c-10.766-80.438-28.652-95.674-46.987-106.801c-7.568-4.594-12.578-12.475-13.482-21.328L476.35,398.377"/>
			<path fill="none" stroke="#001446" stroke-width="1.4229" stroke-miterlimit="10" d="M548.584,291.185l595.665-162.357
				l-6.866,119.09c-0.675,11.707-8.635,21.699-19.834,24.899l-674.531,192.73l73.348-147.806
				C522.854,304.666,534.576,295.003,548.584,291.185z"/>
			<polyline fill="none" stroke="#001446" stroke-width="1.4229" stroke-miterlimit="10" points="907.686,193.307 907.686,573.578 
				699.844,637.488 699.844,249.958 			"/>
		</g>
		<g>
			<path fill="#001446" d="M443.018,465.547l238.994-68.288V254.818l-133.809,36.413c-13.77,3.79-25.286,13.307-31.669,26.168
				L443.018,465.547z"/>
			<path opacity="0.2" fill="#FFFFFF" d="M461.9,452.102l206.854-182.39L552.94,301.228c-11.918,3.28-21.886,11.517-27.41,22.649
				L461.9,452.102z"/>
			<g>
				<defs>
					<path id="SVGID_7_" d="M477.953,393.905l23.894,6.449c2.967,0.801,5.03,3.51,5.03,6.604v60.023
						c0,3.469-2.438,6.451-5.815,7.119l-4.74,0.936c-1.247,0.246-2.533,0.205-3.763-0.121l-21.215-5.613
						c-4.232-1.119-7.184-4.973-7.184-9.383v-53.811c0-3.924,1.723-7.648,4.706-10.172l0,0
						C471.385,393.805,474.777,393.047,477.953,393.905z"/>
				</defs>
				<use xlink:href="#SVGID_7_"  overflow="visible" fill="#263762"/>
				<clipPath id="SVGID_8_">
					<use xlink:href="#SVGID_7_"  overflow="visible"/>
				</clipPath>
				<polygon clip-path="url(#SVGID_8_)" fill="#001446" points="504.842,478.289 496.964,478.289 496.964,409.197 504.842,405.387 
									"/>
			</g>
		</g>
		<path fill="#CBCFD7" d="M245.244,542.797c-58.638-11.555-111.064-24.455-153.152-39.59l1.747,30.826
			c36.381,12.619,84.438,24.006,137.517,34.861L245.244,542.797z"/>
		<path fill="#667290" d="M71.222,459.049c1.951,13.398-12.11,25.992,20.87,44.158l1.747,30.826
			c-26.882-8.869-44.813-19.057-50.763-25.902C43.076,496.193,47.673,473.734,71.222,459.049z"/>
		<path fill="#667290" d="M231.355,568.895l13.889-26.098c86.896,4.824,89.137-33.822,104.313-20.432
			c10.291,9.082,0.295,20.889-8.834,31.277C323.769,572.941,277.318,578.502,231.355,568.895z"/>
		<g>
			<polygon fill="#001446" points="100.776,659.156 176.062,679.33 176.062,647.643 100.776,627.471 			"/>
			<polygon fill="#FFFFFF" points="96.041,660.209 171.327,680.383 171.327,648.695 96.041,628.523 			"/>
		</g>
		<path fill="#667290" d="M174.255,509.496c-4.258,3.777-10.211,4.027-13.298,0.553c-3.087-3.473-2.137-9.354,2.121-13.131
			c4.256-3.779,10.211-4.027,13.297-0.555C179.464,499.836,178.514,505.715,174.255,509.496z"/>
		<g>
			<polygon fill="#CBCFD7" points="554.444,113.454 540.705,109.773 853.502,25.958 867.241,29.64 			"/>
			<polygon fill="#CBCFD7" points="593.654,123.96 579.916,120.279 892.713,36.465 906.451,40.146 			"/>
			<polygon fill="#CBCFD7" points="632.865,134.466 619.126,130.786 931.923,46.971 945.662,50.653 			"/>
			<polygon fill="#CBCFD7" points="672.075,144.973 658.336,141.292 971.134,57.478 984.872,61.16 			"/>
			<polygon fill="#CBCFD7" points="711.285,155.479 697.547,151.798 1010.344,67.984 1024.082,71.666 			"/>
		</g>
	</g>
</g>
</svg>
